<svg width="342" height="679" viewBox="0 0 342 679" fill="none" xmlns="http://www.w3.org/2000/svg">
<path d="M1.10596 674.453L1.10596 677.887H4.53654V674.453H1.10596Z" fill="#82B5D2" stroke="#82B5D2" stroke-width="3" stroke-miterlimit="10"/>
<path d="M1.1084 590.286L1.1084 593.719H4.53898V590.286H1.1084Z" fill="#82B5D2" stroke="#82B5D2" stroke-width="3" stroke-miterlimit="10"/>
<path d="M1.11035 506.118L1.11035 509.552H4.54089V506.118H1.11035Z" fill="#82B5D2" stroke="#82B5D2" stroke-width="3" stroke-miterlimit="10"/>
<path d="M1.11279 421.95L1.11279 425.384H4.54338V421.95H1.11279Z" fill="#82B5D2" stroke="#82B5D2" stroke-width="3" stroke-miterlimit="10"/>
<path d="M1.10742 337.783L1.10742 341.216H4.53801V337.783H1.10742Z" fill="#82B5D2" stroke="#82B5D2" stroke-width="3" stroke-miterlimit="10"/>
<path d="M1.10986 253.615L1.10986 257.049H4.54042V253.615H1.10986Z" fill="#82B5D2" stroke="#82B5D2" stroke-width="3" stroke-miterlimit="10"/>
<path d="M1.11182 169.447L1.11182 172.881H4.54239V169.447H1.11182Z" fill="#82B5D2" stroke="#82B5D2" stroke-width="3" stroke-miterlimit="10"/>
<path d="M1.10693 85.2794L1.10693 88.7133H4.53751V85.2794H1.10693Z" fill="#82B5D2" stroke="#82B5D2" stroke-width="3" stroke-miterlimit="10"/>
<path d="M1.10889 1.11172L1.10889 4.54553H4.53946V1.11172H1.10889Z" fill="#82B5D2" stroke="#82B5D2" stroke-width="3" stroke-miterlimit="10"/>
<path d="M85.1943 674.456V677.889H88.6249V674.456H85.1943Z" fill="#82B5D2" stroke="#82B5D2" stroke-width="3" stroke-miterlimit="10"/>
<path d="M85.1963 590.288V593.722H88.6269V590.288H85.1963Z" fill="#82B5D2" stroke="#82B5D2" stroke-width="3" stroke-miterlimit="10"/>
<path d="M85.1987 506.12V509.554H88.6293V506.12H85.1987Z" fill="#82B5D2" stroke="#82B5D2" stroke-width="3" stroke-miterlimit="10"/>
<path d="M85.2007 421.953V425.386H88.6313V421.953H85.2007Z" fill="#82B5D2" stroke="#82B5D2" stroke-width="3" stroke-miterlimit="10"/>
<path d="M85.1958 337.785V341.219H88.6264V337.785H85.1958Z" fill="#82B5D2" stroke="#82B5D2" stroke-width="3" stroke-miterlimit="10"/>
<path d="M85.1978 253.617V257.051H88.6283V253.617H85.1978Z" fill="#82B5D2" stroke="#82B5D2" stroke-width="3" stroke-miterlimit="10"/>
<path d="M85.2002 169.449V172.883H88.6308V169.449H85.2002Z" fill="#82B5D2" stroke="#82B5D2" stroke-width="3" stroke-miterlimit="10"/>
<path d="M85.1948 85.2816V88.7155H88.6254V85.2816H85.1948Z" fill="#82B5D2" stroke="#82B5D2" stroke-width="3" stroke-miterlimit="10"/>
<path d="M85.1973 1.11391V4.54773H88.6278V1.11391H85.1973Z" fill="#82B5D2" stroke="#82B5D2" stroke-width="3" stroke-miterlimit="10"/>
<path d="M169.282 674.45V677.884H172.713V674.45H169.282Z" fill="#82B5D2" stroke="#82B5D2" stroke-width="3" stroke-miterlimit="10"/>
<path d="M169.285 590.283V593.717H172.715V590.283H169.285Z" fill="#82B5D2" stroke="#82B5D2" stroke-width="3" stroke-miterlimit="10"/>
<path d="M169.287 506.115V509.549H172.717V506.115H169.287Z" fill="#82B5D2" stroke="#82B5D2" stroke-width="3" stroke-miterlimit="10"/>
<path d="M169.289 421.947V425.381H172.72V421.947H169.289Z" fill="#82B5D2" stroke="#82B5D2" stroke-width="3" stroke-miterlimit="10"/>
<path d="M169.284 337.78V341.214H172.715V337.78H169.284Z" fill="#82B5D2" stroke="#82B5D2" stroke-width="3" stroke-miterlimit="10"/>
<path d="M169.286 253.612V257.046H172.717V253.612H169.286Z" fill="#82B5D2" stroke="#82B5D2" stroke-width="3" stroke-miterlimit="10"/>
<path d="M169.289 169.444V172.878H172.719V169.444H169.289Z" fill="#82B5D2" stroke="#82B5D2" stroke-width="3" stroke-miterlimit="10"/>
<path d="M169.283 85.2764V88.7102H172.714V85.2764H169.283Z" fill="#82B5D2" stroke="#82B5D2" stroke-width="3" stroke-miterlimit="10"/>
<path d="M169.286 1.10879V4.5426H172.716V1.10879H169.286Z" fill="#82B5D2" stroke="#82B5D2" stroke-width="3" stroke-miterlimit="10"/>
<path d="M253.371 674.453V677.886H256.801V674.453H253.371Z" fill="#82B5D2" stroke="#82B5D2" stroke-width="3" stroke-miterlimit="10"/>
<path d="M253.373 590.285V593.719H256.804V590.285H253.373Z" fill="#82B5D2" stroke="#82B5D2" stroke-width="3" stroke-miterlimit="10"/>
<path d="M253.375 506.117V509.551H256.806V506.117H253.375Z" fill="#82B5D2" stroke="#82B5D2" stroke-width="3" stroke-miterlimit="10"/>
<path d="M253.377 421.95V425.383H256.808V421.95H253.377Z" fill="#82B5D2" stroke="#82B5D2" stroke-width="3" stroke-miterlimit="10"/>
<path d="M253.372 337.782V341.216H256.803V337.782H253.372Z" fill="#82B5D2" stroke="#82B5D2" stroke-width="3" stroke-miterlimit="10"/>
<path d="M253.375 253.614V257.048H256.805V253.614H253.375Z" fill="#82B5D2" stroke="#82B5D2" stroke-width="3" stroke-miterlimit="10"/>
<path d="M253.376 169.446V172.88H256.807V169.446H253.376Z" fill="#82B5D2" stroke="#82B5D2" stroke-width="3" stroke-miterlimit="10"/>
<path d="M253.372 85.2787V88.7125H256.802V85.2787H253.372Z" fill="#82B5D2" stroke="#82B5D2" stroke-width="3" stroke-miterlimit="10"/>
<path d="M253.374 1.111V4.5448H256.804V1.111H253.374Z" fill="#82B5D2" stroke="#82B5D2" stroke-width="3" stroke-miterlimit="10"/>
<path d="M337.459 674.455V677.889H340.89V674.455H337.459Z" fill="#82B5D2" stroke="#82B5D2" stroke-width="3" stroke-miterlimit="10"/>
<path d="M337.461 590.287V593.721H340.892V590.287H337.461Z" fill="#82B5D2" stroke="#82B5D2" stroke-width="3" stroke-miterlimit="10"/>
<path d="M337.463 506.12V509.553H340.894V506.12H337.463Z" fill="#82B5D2" stroke="#82B5D2" stroke-width="3" stroke-miterlimit="10"/>
<path d="M337.465 421.952V425.386H340.896V421.952H337.465Z" fill="#82B5D2" stroke="#82B5D2" stroke-width="3" stroke-miterlimit="10"/>
<path d="M337.46 337.784V341.218H340.891V337.784H337.46Z" fill="#82B5D2" stroke="#82B5D2" stroke-width="3" stroke-miterlimit="10"/>
<path d="M337.462 253.616V257.05H340.893V253.616H337.462Z" fill="#82B5D2" stroke="#82B5D2" stroke-width="3" stroke-miterlimit="10"/>
<path d="M337.465 169.449V172.883H340.895V169.449H337.465Z" fill="#82B5D2" stroke="#82B5D2" stroke-width="3" stroke-miterlimit="10"/>
<path d="M337.459 85.281V88.7148H340.89V85.281H337.459Z" fill="#82B5D2" stroke="#82B5D2" stroke-width="3" stroke-miterlimit="10"/>
<path d="M337.462 1.11317V4.547H340.893V1.11317H337.462Z" fill="#82B5D2" stroke="#82B5D2" stroke-width="3" stroke-miterlimit="10"/>
</svg>
