<svg width="560" height="10" viewBox="0 0 560 10" fill="none" xmlns="http://www.w3.org/2000/svg">
<circle cx="155" cy="5.00007" r="5" transform="rotate(-90 155 5.00007)" fill="#82B5D2" fill-opacity="0.1"/>
<circle cx="555" cy="5.00005" r="5" transform="rotate(-90 555 5.00005)" fill="#82B5D2" fill-opacity="0.1"/>
<circle cx="255" cy="5.00006" r="5" transform="rotate(-90 255 5.00006)" fill="#82B5D2" fill-opacity="0.1"/>
<circle cx="355" cy="5.00005" r="5" transform="rotate(-90 355 5.00005)" fill="#82B5D2" fill-opacity="0.1"/>
<circle cx="55" cy="5.00007" r="5" transform="rotate(-90 55 5.00007)" fill="#82B5D2" fill-opacity="0.1"/>
<circle cx="455" cy="5.00005" r="5" transform="rotate(-90 455 5.00005)" fill="#82B5D2" fill-opacity="0.1"/>
<circle cx="205" cy="5.00006" r="5" transform="rotate(-90 205 5.00006)" fill="#82B5D2" fill-opacity="0.1"/>
<circle cx="305" cy="5.00006" r="5" transform="rotate(-90 305 5.00006)" fill="#82B5D2" fill-opacity="0.1"/>
<circle cx="5" cy="5.00007" r="5" transform="rotate(-90 5 5.00007)" fill="#82B5D2" fill-opacity="0.1"/>
<circle cx="405" cy="5.00005" r="5" transform="rotate(-90 405 5.00005)" fill="#82B5D2" fill-opacity="0.1"/>
<circle cx="105" cy="5.00007" r="5" transform="rotate(-90 105 5.00007)" fill="#82B5D2" fill-opacity="0.1"/>
<circle cx="505" cy="5.00005" r="5" transform="rotate(-90 505 5.00005)" fill="#82B5D2" fill-opacity="0.1"/>
</svg>
