<svg width="64" height="64" viewBox="0 0 64 64" fill="none" xmlns="http://www.w3.org/2000/svg">
<circle cx="32" cy="32" r="32" fill="#0067FE"/>
<path d="M41.88 38.124C41.88 40.02 41.16 41.628 39.72 42.948C38.304 44.268 36.24 45.036 33.528 45.252V49.32H31.224V45.252C29.472 45.156 27.804 44.832 26.22 44.28C24.66 43.704 23.412 42.984 22.476 42.12L23.808 39.312C24.672 40.104 25.764 40.764 27.084 41.292C28.404 41.796 29.784 42.096 31.224 42.192V33.84C29.544 33.432 28.14 32.988 27.012 32.508C25.908 32.028 24.972 31.32 24.204 30.384C23.46 29.448 23.088 28.224 23.088 26.712C23.088 24.816 23.772 23.208 25.14 21.888C26.532 20.568 28.56 19.8 31.224 19.584V15.48H33.528V19.548C34.896 19.596 36.216 19.812 37.488 20.196C38.784 20.58 39.9 21.096 40.836 21.744L39.648 24.624C37.704 23.4 35.664 22.728 33.528 22.608V30.996C35.28 31.428 36.72 31.884 37.848 32.364C38.976 32.82 39.924 33.516 40.692 34.452C41.484 35.364 41.88 36.588 41.88 38.124ZM26.616 26.568C26.616 27.6 27.012 28.404 27.804 28.98C28.596 29.556 29.736 30.036 31.224 30.42V22.644C29.688 22.836 28.536 23.292 27.768 24.012C27 24.708 26.616 25.56 26.616 26.568ZM33.528 42.156C35.136 42.012 36.336 41.604 37.128 40.932C37.944 40.236 38.352 39.372 38.352 38.34C38.352 37.284 37.932 36.48 37.092 35.928C36.276 35.352 35.088 34.848 33.528 34.416V42.156Z" fill="white"/>
</svg>
