<svg width="431" height="366" viewBox="0 0 431 366" fill="none" xmlns="http://www.w3.org/2000/svg">
<g opacity="0.1" clip-path="url(#clip0)" filter="url(#filter0_d)">
<path d="M356.061 302.909C520.662 241.254 632.133 132.91 605.039 60.9163C577.945 -11.0779 422.545 -19.4597 257.944 42.195C93.3432 103.85 -18.1281 212.193 8.96618 284.187C36.0604 356.182 191.46 364.563 356.061 302.909Z" stroke="#82B5D2" stroke-width="3" stroke-miterlimit="10"/>
<path d="M348.61 279.058C473.934 232.116 558.181 147.961 536.779 91.0947C515.378 34.228 396.434 26.1832 271.109 73.126C145.785 120.069 61.5381 204.223 82.9392 261.09C104.34 317.956 223.285 326.001 348.61 279.058Z" stroke="#82B5D2" stroke-width="3" stroke-miterlimit="10"/>
<path d="M328.795 239.312C410.041 208.879 464.656 154.322 450.782 117.455C436.907 80.588 359.797 75.3716 278.551 105.804C197.304 136.236 142.689 190.793 156.563 227.66C170.438 264.528 247.549 269.744 328.795 239.312Z" stroke="#82B5D2" stroke-width="3" stroke-miterlimit="10"/>
<path d="M420.628 56.2045C427.053 56.2045 432.261 51.0083 432.261 44.5986C432.261 38.1888 427.053 32.9927 420.628 32.9927C414.203 32.9927 408.995 38.1888 408.995 44.5986C408.995 51.0083 414.203 56.2045 420.628 56.2045Z" fill="#82B5D2"/>
<path d="M262.363 49.3163C268.788 49.3163 273.997 44.1201 273.997 37.7104C273.997 31.3006 268.788 26.1045 262.363 26.1045C255.938 26.1045 250.73 31.3006 250.73 37.7104C250.73 44.1201 255.938 49.3163 262.363 49.3163Z" fill="#82B5D2"/>
<path d="M186.48 358C192.905 358 198.113 352.804 198.113 346.394C198.113 339.984 192.905 334.788 186.48 334.788C180.055 334.788 174.846 339.984 174.846 346.394C174.846 352.804 180.055 358 186.48 358Z" fill="#82B5D2"/>
</g>
<defs>
<filter id="filter0_d" x="0" y="0" width="614" height="366" filterUnits="userSpaceOnUse" color-interpolation-filters="sRGB">
<feFlood flood-opacity="0" result="BackgroundImageFix"/>
<feColorMatrix in="SourceAlpha" type="matrix" values="0 0 0 0 0 0 0 0 0 0 0 0 0 0 0 0 0 0 127 0"/>
<feOffset dy="4"/>
<feGaussianBlur stdDeviation="2"/>
<feColorMatrix type="matrix" values="0 0 0 0 0 0 0 0 0 0 0 0 0 0 0 0 0 0 0.25 0"/>
<feBlend mode="normal" in2="BackgroundImageFix" result="effect1_dropShadow"/>
<feBlend mode="normal" in="SourceGraphic" in2="effect1_dropShadow" result="shape"/>
</filter>
<clipPath id="clip0">
<rect width="606" height="358" fill="white" transform="translate(4)"/>
</clipPath>
</defs>
</svg>
