<svg width="64" height="64" viewBox="0 0 64 64" fill="none" xmlns="http://www.w3.org/2000/svg">
<circle cx="32" cy="32" r="32" fill="#0067FE"/>
<path d="M44.582 30.3282C43.8237 28.6214 42.7213 27.0894 41.3438 25.8282L40.207 24.7852C40.1684 24.7508 40.122 24.7263 40.0717 24.7141C40.0215 24.7018 39.969 24.702 39.9189 24.7147C39.8687 24.7274 39.8225 24.7523 39.7842 24.787C39.7459 24.8218 39.7167 24.8655 39.6992 24.9141L39.1914 26.3712C38.875 27.2852 38.293 28.2188 37.4688 29.1368C37.4141 29.1954 37.3516 29.211 37.3086 29.2149C37.2656 29.2188 37.1992 29.211 37.1406 29.1563C37.0859 29.1095 37.0586 29.0391 37.0625 28.9688C37.207 26.6173 36.5039 23.9649 34.9648 21.0782C33.6914 18.6798 31.9219 16.8087 29.7109 15.504L28.0977 14.5548C27.8867 14.4298 27.6172 14.5938 27.6289 14.8399L27.7148 16.7149C27.7734 17.9962 27.625 19.129 27.2734 20.0704C26.8438 21.2227 26.2266 22.293 25.4375 23.254C24.8884 23.9218 24.266 24.5259 23.582 25.0548C21.9348 26.321 20.5954 27.9436 19.6641 29.8009C18.7351 31.6743 18.2511 33.737 18.25 35.8282C18.25 37.6719 18.6133 39.4571 19.332 41.1407C20.026 42.7617 21.0276 44.2328 22.2813 45.4727C23.5469 46.7227 25.0156 47.7071 26.6523 48.3907C28.3477 49.1016 30.1445 49.461 32 49.461C33.8555 49.461 35.6523 49.1016 37.3477 48.3946C38.9803 47.715 40.465 46.7239 41.7188 45.4766C42.9844 44.2266 43.9766 42.7657 44.668 41.1446C45.3856 39.4656 45.7538 37.658 45.75 35.8321C45.75 33.9259 45.3594 32.0743 44.582 30.3282ZM39.8516 43.5821C37.7539 45.6602 34.9688 46.8009 32 46.8009C29.0313 46.8009 26.2461 45.6602 24.1484 43.5821C22.0586 41.5079 20.9063 38.7579 20.9063 35.8321C20.9063 34.1329 21.2891 32.504 22.043 30.9884C22.7773 29.5079 23.8711 28.1837 25.1992 27.1641C26.0462 26.5165 26.8145 25.7718 27.4883 24.9454C28.4648 23.754 29.2305 22.4259 29.7617 21.0001C29.9796 20.4119 30.138 19.8034 30.2344 19.1837C31.1758 20.0509 31.9648 21.0977 32.625 22.3243C33.9297 24.7696 34.5313 26.9454 34.4141 28.797C34.3861 29.233 34.4573 29.6698 34.6224 30.0744C34.7875 30.479 35.0421 30.8409 35.3672 31.1329C35.6489 31.3874 35.9784 31.5833 36.3365 31.7094C36.6946 31.8355 37.0741 31.8891 37.4531 31.8673C38.2227 31.8282 38.9297 31.4884 39.4453 30.9141C39.9648 30.3321 40.4141 29.7384 40.7891 29.1329C41.3359 29.8321 41.793 30.5938 42.1563 31.4141C42.7773 32.8126 43.0938 34.3009 43.0938 35.8321C43.0938 38.7579 41.9414 41.5118 39.8516 43.5821Z" fill="white"/>
</svg>
