<svg width="466" height="452" viewBox="0 0 466 452" fill="none" xmlns="http://www.w3.org/2000/svg">
<g opacity="0.1" clip-path="url(#clip0)">
<path d="M147.11 381.474C353.811 303.828 493.794 167.383 459.77 76.716C425.746 -13.9512 230.599 -24.507 23.8967 53.139C-182.805 130.785 -322.788 267.23 -288.764 357.897C-254.739 448.564 -59.5923 459.12 147.11 381.474Z" stroke="#82B5D2" stroke-width="3" stroke-miterlimit="10"/>
<path d="M137.752 351.438C295.132 292.319 400.926 186.338 374.051 114.722C347.176 43.1055 197.808 32.974 40.429 92.0924C-116.95 151.211 -222.745 257.192 -195.87 328.808C-168.995 400.425 -19.6272 410.556 137.752 351.438Z" stroke="#82B5D2" stroke-width="3" stroke-miterlimit="10"/>
<path d="M112.869 301.382C214.896 263.056 283.481 194.348 266.057 147.919C248.634 101.49 151.801 94.9205 49.7737 133.246C-52.2532 171.572 -120.838 240.279 -103.415 286.709C-85.9914 333.138 10.8422 339.707 112.869 301.382Z" stroke="#82B5D2" stroke-width="3" stroke-miterlimit="10"/>
<path d="M228.191 70.782C236.259 70.782 242.8 64.2382 242.8 56.1659C242.8 48.0937 236.259 41.5498 228.191 41.5498C220.123 41.5498 213.583 48.0937 213.583 56.1659C213.583 64.2382 220.123 70.782 228.191 70.782Z" fill="#82B5D2" stroke="#82B5D2" stroke-width="3" stroke-miterlimit="10"/>
<path d="M29.4462 62.107C37.5144 62.107 44.055 55.5631 44.055 47.4909C44.055 39.4186 37.5144 32.8748 29.4462 32.8748C21.378 32.8748 14.8374 39.4186 14.8374 47.4909C14.8374 55.5631 21.378 62.107 29.4462 62.107Z" fill="#82B5D2" stroke="#82B5D2" stroke-width="3" stroke-miterlimit="10"/>
</g>
<defs>
<clipPath id="clip0">
<rect width="761" height="452" fill="white" transform="translate(-295)"/>
</clipPath>
</defs>
</svg>
