<svg width="512" height="363" viewBox="0 0 512 363" fill="none" xmlns="http://www.w3.org/2000/svg">
<g opacity="0.1" clip-path="url(#clip0)">
<path d="M255.966 306.361C421.925 244.004 534.316 134.425 506.998 61.6105C479.68 -11.2041 322.998 -19.6814 157.039 42.6758C-8.91963 105.033 -121.311 214.612 -93.9928 287.426C-66.675 360.241 90.0069 368.718 255.966 306.361Z" stroke="#82B5D2" stroke-width="3" stroke-miterlimit="10"/>
<path d="M248.453 282.239C374.812 234.761 459.754 149.647 438.176 92.1327C416.598 34.6179 296.672 26.4814 170.313 73.9592C43.9548 121.437 -40.9868 206.55 -19.409 264.065C2.16875 321.58 122.095 329.716 248.453 282.239Z" stroke="#82B5D2" stroke-width="3" stroke-miterlimit="10"/>
<path d="M228.475 242.039C310.391 211.26 365.457 156.081 351.468 118.793C337.479 81.5062 259.733 76.2304 177.816 107.01C95.8996 137.789 40.8335 192.968 54.8225 230.255C68.8116 267.542 146.558 272.818 228.475 242.039Z" stroke="#82B5D2" stroke-width="3" stroke-miterlimit="10"/>
<path d="M321.066 56.8449C327.544 56.8449 332.795 51.5895 332.795 45.1067C332.795 38.6239 327.544 33.3685 321.066 33.3685C314.588 33.3685 309.336 38.6239 309.336 45.1067C309.336 51.5895 314.588 56.8449 321.066 56.8449Z" fill="#82B5D2" stroke="#82B5D2" stroke-width="3" stroke-miterlimit="10"/>
<path d="M161.495 49.8779C167.973 49.8779 173.224 44.6226 173.224 38.1398C173.224 31.657 167.973 26.4016 161.495 26.4016C155.017 26.4016 149.766 31.657 149.766 38.1398C149.766 44.6226 155.017 49.8779 161.495 49.8779Z" fill="#82B5D2" stroke="#82B5D2" stroke-width="3" stroke-miterlimit="10"/>
<path d="M84.9851 362.08C91.463 362.08 96.7144 356.825 96.7144 350.342C96.7144 343.859 91.463 338.604 84.9851 338.604C78.5072 338.604 73.2559 343.859 73.2559 350.342C73.2559 356.825 78.5072 362.08 84.9851 362.08Z" fill="#82B5D2" stroke="#82B5D2" stroke-width="3" stroke-miterlimit="10"/>
</g>
<defs>
<clipPath id="clip0">
<rect width="611" height="363" fill="white" transform="translate(-99)"/>
</clipPath>
</defs>
</svg>
