<svg width="77" height="64" viewBox="0 0 77 64" fill="none" xmlns="http://www.w3.org/2000/svg">
<path d="M53.0345 60.7905C52.498 60.6368 51.9513 60.5118 51.4286 60.3188C50.8477 60.1079 50.7077 60.1508 50.4651 60.7333C49.6177 62.7561 47.6121 63.7103 45.5484 63.0635C45.1999 62.9527 44.8582 62.799 44.5336 62.6203C44.2295 62.4523 43.9835 62.4988 43.7341 62.7025C42.2034 63.9533 40.4609 64.2035 38.6022 63.8604C37.4029 63.6389 36.2891 63.1564 35.2436 62.5167C34.9258 62.3201 34.6832 62.3451 34.3894 62.5667C33.1013 63.5424 31.4032 63.5352 30.156 62.5238C29.7358 62.1843 29.3497 61.709 29.1276 61.2087C28.8679 60.619 28.6664 60.619 28.2017 60.6976C26.3156 61.0192 24.4979 59.7755 23.8659 58.1673C23.6438 57.6062 23.5037 57.5348 22.9433 57.6313C21.2384 57.9207 19.5027 56.7235 18.9629 55.3476C18.8569 55.0831 18.7818 54.7972 18.6417 54.5542C18.5631 54.4148 18.3718 54.2397 18.2453 54.254C16.3525 54.4398 14.6236 52.9102 14.4699 50.9661C14.4596 50.8589 14.3879 50.7481 14.4049 50.648C14.5109 50.0369 14.1931 49.7188 13.725 49.4544C12.905 48.9933 12.0986 48.5073 11.2991 48.0105C10.9643 47.8032 10.7388 47.8962 10.527 48.1892C10.1579 48.7038 9.76844 48.8611 9.20468 48.6824C6.43372 47.814 3.66959 46.9169 0.891787 46.0699C2.17026e-05 45.7983 -0.133231 45.055 0.11619 44.3295C0.888371 42.0565 1.67422 39.7872 2.44981 37.5142C3.64909 34.0011 4.84152 30.4881 6.03738 26.975C6.81639 24.6878 7.60565 22.4077 8.38125 20.1204C8.57942 19.5415 8.80493 18.9696 9.48827 18.9661C9.83678 18.9625 10.2058 19.1126 10.5338 19.2627C13.0656 20.4349 15.5905 21.6143 18.1087 22.8151C18.3547 22.933 18.5323 23.2011 18.7578 23.3762C18.9697 23.5406 19.1884 23.7729 19.4241 23.8015C20.2407 23.9051 21.0676 23.9194 21.8876 23.9909C23.0048 24.0874 24.1221 24.2053 25.2428 24.3125C25.6084 24.3483 25.974 24.3733 26.3361 24.4019C27.6106 24.5091 28.8884 24.6199 30.1629 24.7271C30.5011 24.7557 30.8428 24.82 31.1776 24.7986C31.3827 24.7878 31.6013 24.6806 31.7824 24.5627C33.2619 23.5799 34.7037 22.5256 36.2276 21.625C36.887 21.2355 37.7036 21.1104 38.4655 20.9388C39.7536 20.6493 41.0691 20.6529 42.3811 20.6815C43.8059 20.7137 45.1589 21.0782 46.4197 21.7465C47.6804 22.4148 48.9583 23.0724 50.1302 23.8872C50.7726 24.334 51.3534 24.1088 51.965 24.1231C52.4058 24.1338 52.8465 24.023 53.2873 23.9873C54.449 23.898 55.6107 23.8372 56.7689 23.7193C57.0354 23.6907 57.2951 23.4905 57.5377 23.3297C59.4032 22.086 61.2517 20.8209 63.124 19.5843C63.5546 19.302 63.9304 18.8589 64.5283 18.9375C64.87 18.9839 65.1741 19.0876 65.3415 19.4235C65.7515 20.2384 66.1581 21.0532 66.5544 21.8752C67.9416 24.7449 69.3254 27.6183 70.7126 30.4881C71.6898 32.5109 72.6738 34.5336 73.6544 36.5564C74.6521 38.6149 75.6498 40.6735 76.6474 42.7356C77.054 43.579 76.8661 44.1758 76.0427 44.5797C73.3332 45.9091 70.6203 47.2243 67.9075 48.5466C67.1319 48.9254 66.674 48.7503 66.1444 47.9819C66.0146 47.7925 65.8643 47.6174 65.7618 47.4137C65.567 47.0242 65.3107 47.0849 65.0477 47.285C63.8791 48.1642 62.7209 49.0505 61.5592 49.9368C61.3063 50.1298 61.3063 50.38 61.3883 50.673C61.5216 51.1412 61.6446 51.6165 61.7369 52.099C61.9316 53.1139 61.5968 53.9931 61.0193 54.7758C60.2301 55.8443 59.1641 56.3304 57.8759 56.3018C57.1619 56.2875 57.1619 56.2982 57.0662 57.0344C56.8441 58.7606 55.351 60.3795 53.7007 60.669C53.4957 60.7047 53.2805 60.6726 53.0686 60.6726C53.0515 60.7155 53.0413 60.7512 53.0345 60.7905ZM29.7119 39.5441C29.4727 39.5048 29.0012 39.4762 28.5502 39.3512C26.7496 38.8508 25.9432 37.4106 25.974 35.8774C26.0047 34.3585 26.6232 33.0505 27.6003 31.9248C27.7814 31.7175 28.0069 31.4745 28.0411 31.2207C28.2324 29.9163 28.5365 28.6476 29.0319 27.4325C29.1549 27.1323 29.0251 26.9107 28.7142 26.8821C28.2837 26.8428 27.8532 26.8249 27.4227 26.7927C26.7052 26.7391 25.9876 26.682 25.2735 26.6212C24.0914 26.5176 22.9058 26.4068 21.7236 26.2996C20.866 26.2209 20.0084 26.1459 19.1508 26.0601C18.8535 26.0315 18.6348 26.0851 18.5802 26.4532C18.5187 26.8571 18.423 27.2538 18.3513 27.6576C17.7909 30.8455 16.8718 33.9297 15.7614 36.946C14.7261 39.7657 13.5542 42.5247 12.1533 45.1693C11.9654 45.5196 12.0235 45.7519 12.3549 45.952C13.0929 46.3952 13.8138 46.8705 14.5587 47.2993C15.4607 47.8175 15.4675 47.8032 16.0621 46.8883C16.5575 46.1307 17.2442 45.6161 18.0848 45.4124C19.6086 45.0407 21.1393 45.5303 22.0584 47.0813C22.2327 47.378 22.4172 47.403 22.7178 47.3029C23.1005 47.1778 23.5037 47.0599 23.9 47.0527C25.3795 47.0349 26.5617 47.6567 27.3919 48.9612C27.7404 49.508 27.7746 49.5258 28.3862 49.3257C29.1652 49.0684 29.951 49.0219 30.7403 49.2649C32.4828 49.801 33.4532 51.0447 33.7539 52.8888C33.8017 53.1926 33.9349 53.3105 34.2185 53.3284C35.3051 53.3891 36.1832 53.9038 36.8392 54.7865C37.0749 55.1046 37.2628 55.0831 37.5328 54.9187C38.1478 54.5363 38.4245 54.5471 38.9917 55.0224C39.6238 55.5513 40.2456 56.0981 40.8675 56.6377C41.9233 57.5526 42.9654 58.489 44.0416 59.3824C44.643 59.8828 45.2614 60.3795 45.9345 60.7583C46.8194 61.2587 47.9538 60.8191 48.3604 59.9256C48.6269 59.3395 48.3945 58.2424 47.8239 57.6884C46.9493 56.8414 46.0472 56.0302 45.1486 55.2118C44.3901 54.5185 43.618 53.8394 42.856 53.1533C41.9438 52.3349 41.0315 51.5093 40.1192 50.6909C39.4154 50.0583 38.7081 49.4293 38.0077 48.7932C37.5123 48.3465 37.0066 47.9105 36.5419 47.428C36.1251 46.9991 36.1456 46.2772 36.5351 45.8269C36.8767 45.4302 37.5225 45.3373 37.9359 45.659C38.2913 45.9377 38.6227 46.2486 38.9575 46.5524C39.8254 47.3422 40.6864 48.1428 41.5577 48.9326C42.4768 49.7653 43.4027 50.5908 44.3252 51.42C45.1486 52.1633 45.9618 52.9138 46.7887 53.65C47.8103 54.5649 48.825 55.4941 49.8706 56.3804C50.6086 57.0058 51.3466 57.6706 52.1734 58.1423C53.2873 58.7749 54.3123 58.2531 54.7701 57.038C55.0913 56.1839 54.6471 55.0688 53.8442 54.3862C52.8192 53.5178 51.8215 52.61 50.817 51.713C49.8056 50.8053 48.8045 49.8796 47.7898 48.9719C46.7477 48.0355 45.6987 47.1099 44.6532 46.1807C43.7683 45.3909 42.8868 44.5975 41.995 43.8113C41.6192 43.4789 41.4517 42.8035 41.6636 42.3496C41.9062 41.8278 42.4084 41.5348 42.9244 41.7671C43.3754 41.9708 43.7751 42.3317 44.1612 42.6677C44.9949 43.3931 45.8047 44.1544 46.6281 44.8942C47.6429 45.8019 48.6645 46.6954 49.6758 47.6031C50.53 48.3715 51.3671 49.1577 52.2213 49.9225C53.2326 50.8303 54.2747 51.7059 55.2656 52.6351C55.9899 53.3141 56.7963 53.7822 57.7461 53.9645C58.8702 54.1789 59.8372 53.0961 59.5262 52.0311C59.311 51.2877 58.8395 50.7802 58.303 50.2728C56.7518 48.8146 55.2451 47.3065 53.7144 45.8233C52.7714 44.9084 51.8181 44.0078 50.8751 43.0965C49.4776 41.7492 48.0836 40.3947 46.6862 39.0474C46.0609 38.4434 45.4356 37.8359 44.8001 37.2426C43.7068 36.2241 42.6134 35.1984 41.4962 34.2084C41.0827 33.8403 40.6351 33.4472 40.1363 33.2685C39.371 32.9933 38.5544 33.1256 37.7856 33.3936C37.6318 33.4472 37.4644 33.5902 37.3893 33.7367C36.6888 35.0947 35.8483 36.3384 34.7925 37.4284C33.4361 38.8294 31.8234 39.5013 29.7119 39.5441ZM41.5406 22.9187C40.5531 23.0295 39.5657 23.1189 38.5851 23.2654C38.1239 23.3333 37.6284 23.4262 37.2389 23.6692C35.8517 24.5448 34.4782 25.4526 33.1491 26.4211C32.4453 26.9321 31.7346 27.5039 31.2118 28.1973C30.5456 29.08 30.4123 30.2343 30.2927 31.3351C30.2073 32.1142 30.0296 32.7789 29.4249 33.3078C28.844 33.8189 28.4784 34.5086 28.2666 35.277C27.9796 36.3241 28.5024 37.1318 29.5171 37.2176C30.9931 37.3391 32.2505 36.8423 33.2892 35.7452C34.263 34.7123 35.0385 33.5294 35.6399 32.225C35.8449 31.7782 36.1251 31.4494 36.6068 31.3422C37.2423 31.1993 37.8744 31.0063 38.5168 30.9098C39.8015 30.7239 41.0452 30.8848 42.0907 31.7568C43.1635 32.6502 44.2056 33.5902 45.2306 34.5408C46.652 35.856 48.0494 37.2033 49.4571 38.5399C50.3797 39.4155 51.2988 40.2911 52.2144 41.1774C53.7349 42.6498 55.2485 44.1294 56.7655 45.6053C57.5992 46.4202 58.4295 47.2386 59.2666 48.0498C59.5911 48.3643 59.8611 48.3608 60.2096 48.0927C61.2722 47.2779 62.345 46.4702 63.4076 45.6554C64.091 45.13 64.3951 45.1729 63.7117 44.2151C63.6878 44.183 63.6741 44.1437 63.6536 44.1079C62.3894 41.8778 61.1765 39.6156 60.213 37.2247C59.5057 35.47 58.7882 33.7152 58.1869 31.9212C57.5821 30.1128 57.114 28.258 56.5947 26.4211C56.5229 26.1638 56.3863 26.0494 56.1403 26.0673C54.8521 26.1745 53.564 26.2781 52.2759 26.3961C51.8488 26.4354 51.4218 26.5462 50.9947 26.5426C50.5437 26.539 49.9936 26.5855 49.6656 26.346C48.4902 25.4847 47.2533 24.7557 45.9721 24.0874C44.5746 23.3512 43.1328 22.8615 41.5406 22.9187ZM16.5575 25.038C16.5882 24.7092 16.4071 24.552 16.1543 24.4376C14.4049 23.6228 12.6624 22.7936 10.9096 21.9895C10.1887 21.6607 10.1887 21.6858 9.9222 22.4756C9.25252 24.4662 8.576 26.4568 7.89608 28.4439C6.76172 31.7604 5.62054 35.0769 4.48618 38.3934C3.89851 40.1088 3.32108 41.8314 2.72999 43.5468C2.54548 44.0793 2.60357 44.2294 3.11266 44.3831C3.85409 44.6082 4.59552 44.837 5.33353 45.0657C6.43713 45.4052 7.54415 45.7412 8.64776 46.0878C8.89034 46.1629 9.08851 46.1557 9.22518 45.902C9.45752 45.4731 9.70694 45.0514 9.91536 44.6118C10.6807 43.0036 11.4871 41.4097 12.1772 39.7657C12.9733 37.8716 13.7455 35.9596 14.3776 34.0047C15.0268 31.9998 15.5256 29.9377 16.0381 27.8899C16.2773 26.9571 16.3901 25.9922 16.5575 25.038ZM67.7298 46.0271C67.9314 45.9627 68.0475 45.9377 68.15 45.8877C69.9678 44.9978 71.7854 44.1079 73.5997 43.2073C74.0952 42.9607 74.1498 42.7677 73.9072 42.2674C72.9232 40.2339 71.9358 38.2004 70.9518 36.1669C69.8174 33.826 68.6831 31.4852 67.5555 29.1443C66.7287 27.4253 65.9155 25.6992 65.0887 23.9801C64.8119 23.4048 64.5215 22.8365 64.2276 22.2683C64.091 22.0038 63.9065 21.8108 63.5956 22.0217C62.0307 23.0688 60.4692 24.1231 58.901 25.1631C58.672 25.3168 58.6208 25.4704 58.696 25.742C58.9727 26.7248 59.2016 27.7255 59.4955 28.7012C60.6572 32.568 62.1059 36.3098 63.927 39.8944C64.9452 41.8921 66.0658 43.8149 67.2993 45.6732C67.4052 45.8269 67.6034 45.9234 67.7298 46.0271ZM31.5398 53.407C31.5877 52.7601 31.3211 52.2419 30.8428 51.8845C29.8178 51.109 28.7381 51.3092 28.0172 52.4063C27.368 53.3963 26.7735 54.4255 26.1141 55.4083C25.8305 55.8336 25.7348 56.2625 25.769 56.7557C25.8339 57.7385 26.958 58.5926 27.8839 58.4068C28.5673 58.271 29.0422 57.8814 29.4146 57.2989C29.9579 56.4483 30.5011 55.5942 31.0751 54.7651C31.3656 54.3505 31.574 53.9324 31.5398 53.407ZM20.6985 53.4463C20.7293 53.4606 20.7635 53.4749 20.7942 53.4892C20.6883 54.1825 21.2008 54.9616 21.8978 55.2475C22.6768 55.5656 23.5857 55.1546 23.8693 54.6971C24.3305 53.9502 24.802 53.214 25.2701 52.4742C25.5981 51.9525 26.0013 51.4771 25.7758 50.7516C25.5332 49.9761 25.031 49.5151 24.2998 49.3864C23.6267 49.2685 23.0356 49.5115 22.6256 50.1298C22.1199 50.8946 21.5937 51.6415 21.112 52.4242C20.9206 52.7315 20.8318 53.1032 20.6985 53.4463ZM40.0577 61.6768C40.6351 61.7269 41.2672 61.591 41.8583 61.2515C42.2 61.055 42.2103 60.8084 41.913 60.5546C41.1852 59.9292 40.4677 59.2931 39.7434 58.6641C39.2514 58.2352 38.7662 57.7957 38.2639 57.3847C37.8881 57.0773 37.5567 57.2346 37.4644 57.7206C37.42 57.9458 37.3858 58.1888 37.2833 58.3853C37.0271 58.8749 36.7503 59.3538 36.4565 59.8184C36.2207 60.1973 36.231 60.451 36.5727 60.644C37.6318 61.2372 38.7286 61.7161 40.0577 61.6768ZM32.2847 60.9335C32.8621 60.9335 33.0227 60.8084 33.0432 60.3545C33.0705 59.7577 33.3097 59.4682 33.8529 59.2323C34.0921 59.1287 34.321 58.9393 34.4919 58.732C34.7208 58.4568 34.895 58.128 35.0864 57.8207C35.5203 57.1166 35.3221 56.2875 34.608 55.7907C34.0955 55.4369 33.2619 55.6442 32.8655 56.241C32.3052 57.0809 31.7653 57.935 31.2016 58.7713C30.8975 59.2252 30.8975 59.7112 31.0956 60.1722C31.3143 60.6833 31.7141 60.9728 32.2847 60.9335ZM18.9424 47.5531C18.71 47.6567 18.4093 47.696 18.259 47.8783C17.7875 48.4358 17.3775 49.0469 16.9367 49.633C16.7146 49.9297 16.6668 50.2656 16.6805 50.6337C16.701 51.1948 17.0358 51.688 17.5552 51.8631C18.1326 52.0561 18.7647 51.8738 19.0756 51.4092C19.4275 50.8839 19.7589 50.3442 20.1177 49.8225C20.4355 49.365 20.4628 48.8754 20.2202 48.4036C19.964 47.9069 19.5505 47.5995 18.9424 47.5531Z" fill="#0067FE"/>
<path d="M31.3828 1.25792C31.3862 0.550299 31.7655 0.0785548 32.2985 0.0213736C32.9374 -0.046529 33.4124 0.26082 33.5251 0.886239C33.7506 2.14422 33.9454 3.40936 34.1469 4.67092C34.3998 6.27199 34.6458 7.86949 34.8986 9.47056C35.1207 10.8822 35.3565 12.2903 35.5649 13.7055C35.6537 14.3095 35.2437 14.867 34.6936 14.9778C34.0581 15.1065 33.5627 14.817 33.4192 14.1487C33.2347 13.2874 33.1083 12.4082 32.9648 11.5362C32.7837 10.4069 32.6128 9.27757 32.4386 8.14824C32.2438 6.89741 32.0491 5.64657 31.8577 4.39573C31.7108 3.44152 31.5605 2.48731 31.4136 1.5331C31.3931 1.41159 31.3862 1.28651 31.3828 1.25792Z" fill="#0067FE"/>
<path d="M43.4606 15.0135C42.8183 15.0027 42.3365 14.3773 42.4219 13.7054C42.6474 11.99 42.849 10.2746 43.0779 8.55914C43.3274 6.69717 43.5973 4.83879 43.857 2.9804C43.9458 2.34783 44.0244 1.71169 44.0996 1.07555C44.1884 0.321475 44.7385 -0.121679 45.456 0.0319953C46.0539 0.160653 46.3922 0.864696 46.276 1.4508C46.0676 2.50151 45.9822 3.5808 45.8387 4.6458C45.6917 5.75011 45.538 6.858 45.3911 7.96231C45.2476 9.02731 45.1109 10.0959 44.9708 11.1609C44.8376 12.158 44.718 13.1586 44.5676 14.1557C44.4959 14.6668 44.0073 15.0206 43.4606 15.0135Z" fill="#0067FE"/>
<path d="M52.0267 16.4715C51.5962 16.4787 51.2511 16.3322 51.0393 15.9247C50.8069 15.4852 50.8479 15.0492 51.0973 14.6417C52.1497 12.9263 53.2089 11.218 54.2647 9.50259C54.7874 8.65202 55.2999 7.79072 55.8261 6.94373C56.1746 6.37906 56.8614 6.20037 57.367 6.52202C57.8761 6.84366 58.0572 7.50124 57.7258 8.09093C57.203 9.02012 56.6256 9.92072 56.0721 10.832C55.0505 12.5046 54.0289 14.1736 53.0073 15.8425C52.775 16.2142 52.4845 16.493 52.0267 16.4715Z" fill="#0067FE"/>
<path d="M25.417 16.5109C24.9899 16.5109 24.7029 16.3036 24.4808 15.9606C23.302 14.1522 22.1198 12.3474 20.941 10.5391C20.7258 10.2103 20.5379 9.86004 20.2919 9.56341C19.9263 9.12026 20.0664 8.22323 20.4729 7.93018C21.047 7.51561 21.6961 7.62998 22.1096 8.25539C23.2302 9.95653 24.3441 11.6612 25.4614 13.366C25.7484 13.8055 26.0456 14.2415 26.3224 14.6883C26.6675 15.2494 26.5001 16.0463 25.967 16.3429C25.803 16.4323 25.6015 16.4573 25.417 16.5109Z" fill="#0067FE"/>
</svg>
