<svg width="25" height="25" viewBox="0 0 25 25" fill="none" xmlns="http://www.w3.org/2000/svg">
<path d="M12.5 8.00781C11.6115 8.00781 10.743 8.27127 10.0043 8.76488C9.26554 9.25849 8.68976 9.96007 8.34976 10.7809C8.00976 11.6018 7.9208 12.505 8.09413 13.3764C8.26746 14.2478 8.6953 15.0482 9.32354 15.6765C9.95179 16.3047 10.7522 16.7325 11.6236 16.9059C12.495 17.0792 13.3982 16.9902 14.2191 16.6502C15.0399 16.3102 15.7415 15.7345 16.2351 14.9957C16.7287 14.257 16.9922 13.3885 16.9922 12.5C16.9908 11.309 16.5171 10.1672 15.675 9.32503C14.8328 8.48287 13.691 8.00916 12.5 8.00781ZM12.5 15.8203C11.8433 15.8203 11.2014 15.6256 10.6553 15.2607C10.1093 14.8959 9.68374 14.3773 9.43243 13.7706C9.18112 13.1639 9.11537 12.4963 9.24349 11.8522C9.3716 11.2082 9.68783 10.6165 10.1522 10.1522C10.6165 9.68783 11.2082 9.3716 11.8522 9.24349C12.4963 9.11537 13.1639 9.18112 13.7706 9.43243C14.3773 9.68374 14.8959 10.1093 15.2607 10.6553C15.6256 11.2014 15.8203 11.8433 15.8203 12.5C15.8193 13.3803 15.4692 14.2242 14.8467 14.8467C14.2242 15.4692 13.3803 15.8193 12.5 15.8203ZM16.7969 2.92969H8.20312C6.80501 2.93129 5.46463 3.4874 4.47601 4.47601C3.4874 5.46463 2.93129 6.80501 2.92969 8.20312V16.7969C2.93129 18.195 3.4874 19.5354 4.47601 20.524C5.46463 21.5126 6.80501 22.0687 8.20312 22.0703H16.7969C18.195 22.0687 19.5354 21.5126 20.524 20.524C21.5126 19.5354 22.0687 18.195 22.0703 16.7969V8.20312C22.0687 6.80501 21.5126 5.46463 20.524 4.47601C19.5354 3.4874 18.195 2.93129 16.7969 2.92969ZM20.8984 16.7969C20.8972 17.8843 20.4647 18.9268 19.6958 19.6958C18.9268 20.4647 17.8843 20.8972 16.7969 20.8984H8.20312C7.1157 20.8972 6.07315 20.4647 5.30422 19.6958C4.5353 18.9268 4.10278 17.8843 4.10156 16.7969V8.20312C4.10278 7.1157 4.5353 6.07315 5.30422 5.30422C6.07315 4.5353 7.1157 4.10278 8.20312 4.10156H16.7969C17.8843 4.10278 18.9268 4.5353 19.6958 5.30422C20.4647 6.07315 20.8972 7.1157 20.8984 8.20312V16.7969ZM18.5547 7.42188C18.5547 7.61502 18.4974 7.80383 18.3901 7.96442C18.2828 8.12502 18.1303 8.25019 17.9518 8.3241C17.7734 8.39801 17.577 8.41735 17.3876 8.37967C17.1982 8.34199 17.0242 8.24898 16.8876 8.11241C16.751 7.97583 16.658 7.80183 16.6203 7.61239C16.5826 7.42296 16.602 7.2266 16.6759 7.04816C16.7498 6.86972 16.875 6.7172 17.0356 6.60989C17.1962 6.50259 17.385 6.44531 17.5781 6.44531C17.837 6.44562 18.0852 6.54861 18.2683 6.73168C18.4514 6.91476 18.5544 7.16297 18.5547 7.42188Z" fill="#F2F2F2"/>
</svg>
