<svg width="363" height="79" viewBox="0 0 363 79" fill="none" xmlns="http://www.w3.org/2000/svg">
<g filter="url(#filter0_dd)">
<path d="M56.752 69V70H58.7476L57.5531 68.4014L56.752 69ZM41.488 69L40.6927 69.6062L40.9928 70H41.488V69ZM17.488 37.512L18.2833 36.9058L16.488 34.5504V37.512H17.488ZM17.488 69V70H18.488V69H17.488ZM4.24 69H3.24V70H4.24V69ZM4.24 1.8V0.799995H3.24V1.8H4.24ZM17.488 1.8H18.488V0.799995H17.488V1.8ZM17.488 31.464H16.488V34.3817L18.2778 32.0774L17.488 31.464ZM40.528 1.8V0.799995H40.0385L39.7382 1.18659L40.528 1.8ZM55.792 1.8L56.5875 2.40597L57.8109 0.799995H55.792V1.8ZM30.928 34.44L30.1325 33.834L29.6753 34.4342L30.1269 35.0386L30.928 34.44ZM56.752 68H41.488V70H56.752V68ZM42.2833 68.3938L18.2833 36.9058L16.6927 38.1182L40.6927 69.6062L42.2833 68.3938ZM16.488 37.512V69H18.488V37.512H16.488ZM17.488 68H4.24V70H17.488V68ZM5.24 69V1.8H3.24V69H5.24ZM4.24 2.8H17.488V0.799995H4.24V2.8ZM16.488 1.8V31.464H18.488V1.8H16.488ZM18.2778 32.0774L41.3178 2.4134L39.7382 1.18659L16.6982 30.8506L18.2778 32.0774ZM40.528 2.8H55.792V0.799995H40.528V2.8ZM54.9965 1.19402L30.1325 33.834L31.7235 35.046L56.5875 2.40597L54.9965 1.19402ZM30.1269 35.0386L55.9509 69.5986L57.5531 68.4014L31.7291 33.8414L30.1269 35.0386ZM108.19 69L107.241 69.3162L107.469 70H108.19V69ZM104.158 56.904L105.107 56.5878L104.879 55.904H104.158V56.904ZM77.374 56.904V55.904H76.6532L76.4253 56.5878L77.374 56.904ZM73.342 69V70H74.0628L74.2907 69.3162L73.342 69ZM59.038 69L58.0941 68.6696L57.6285 70H59.038V69ZM82.558 1.8V0.799995H81.8485L81.6141 1.46964L82.558 1.8ZM98.974 1.8L99.9174 1.46844L99.6825 0.799995H98.974V1.8ZM122.59 69V70H124.001L123.533 68.6684L122.59 69ZM81.598 44.52L80.65 44.2018L80.2075 45.52H81.598V44.52ZM100.03 44.52V45.52H101.42L100.978 44.2018L100.03 44.52ZM90.814 17.064L91.762 16.7458L90.814 13.9215L89.866 16.7458L90.814 17.064ZM109.139 68.6838L105.107 56.5878L103.209 57.2202L107.241 69.3162L109.139 68.6838ZM104.158 55.904H77.374V57.904H104.158V55.904ZM76.4253 56.5878L72.3933 68.6838L74.2907 69.3162L78.3227 57.2202L76.4253 56.5878ZM73.342 68H59.038V70H73.342V68ZM59.9819 69.3304L83.5019 2.13035L81.6141 1.46964L58.0941 68.6696L59.9819 69.3304ZM82.558 2.8H98.974V0.799995H82.558V2.8ZM98.0306 2.13155L121.647 69.3316L123.533 68.6684L99.9174 1.46844L98.0306 2.13155ZM122.59 68H108.19V70H122.59V68ZM81.598 45.52H100.03V43.52H81.598V45.52ZM100.978 44.2018L91.762 16.7458L89.866 17.3822L99.082 44.8382L100.978 44.2018ZM89.866 16.7458L80.65 44.2018L82.546 44.8382L91.762 17.3822L89.866 16.7458ZM164.731 34.248L164.147 33.4365L162.84 34.3774L164.263 35.1316L164.731 34.248ZM167.515 64.776L168.148 65.5504L167.515 64.776ZM124.891 54.504L124.4 53.6326L123.637 54.0623L123.963 54.8754L124.891 54.504ZM136.315 48.072L137.269 47.7727L136.9 46.5952L135.824 47.2006L136.315 48.072ZM158.299 55.56L158.924 56.3409L158.299 55.56ZM158.299 43.08L157.661 43.8504L157.668 43.8557L157.674 43.8609L158.299 43.08ZM141.883 40.776H140.883V41.776H141.883V40.776ZM141.883 28.968V27.968H140.883V28.968H141.883ZM155.995 26.856L156.599 27.6527L156.608 27.6462L156.616 27.6395L155.995 26.856ZM156.379 15.048L155.702 15.7839L155.71 15.7914L155.718 15.7987L156.379 15.048ZM137.179 21.288L136.677 22.1526L137.67 22.7298L138.105 21.6666L137.179 21.288ZM125.947 14.76L125.044 14.3298L124.648 15.1616L125.445 15.6246L125.947 14.76ZM164.263 35.1316C167.33 36.757 169.583 38.816 171.074 41.292C172.566 43.7679 173.331 46.7192 173.331 50.184H175.331C175.331 46.4168 174.496 43.0961 172.788 40.26C171.079 37.424 168.532 35.131 165.199 33.3644L164.263 35.1316ZM173.331 50.184C173.331 55.9086 171.187 60.485 166.882 64.0016L168.148 65.5504C172.931 61.643 175.331 56.4914 175.331 50.184H173.331ZM166.882 64.0016C162.554 67.5374 156.937 69.344 149.947 69.344V71.344C157.293 71.344 163.388 69.4386 168.148 65.5504L166.882 64.0016ZM149.947 69.344C143.847 69.344 138.836 68.0542 134.857 65.5387C130.885 63.0277 127.866 59.2477 125.819 54.1326L123.963 54.8754C126.14 60.3203 129.409 64.4603 133.789 67.2293C138.162 69.9938 143.567 71.344 149.947 71.344V69.344ZM125.382 55.3754L136.806 48.9434L135.824 47.2006L124.4 53.6326L125.382 55.3754ZM135.361 48.3713C136.435 51.7948 138.192 54.4438 140.676 56.2282C143.157 58.0107 146.272 58.864 149.947 58.864V56.864C146.582 56.864 143.905 56.0853 141.842 54.6038C139.782 53.1242 138.243 50.8772 137.269 47.7727L135.361 48.3713ZM149.947 58.864C153.716 58.864 156.758 58.073 158.924 56.3409L157.674 54.7791C155.999 56.119 153.474 56.864 149.947 56.864V58.864ZM158.924 56.3409C161.099 54.6009 162.179 52.2243 162.179 49.32H160.179C160.179 51.6637 159.339 53.4471 157.674 54.7791L158.924 56.3409ZM162.179 49.32C162.179 46.4157 161.099 44.0391 158.924 42.2991L157.674 43.8609C159.339 45.1929 160.179 46.9763 160.179 49.32H162.179ZM158.937 42.3096C156.835 40.5701 153.883 39.776 150.235 39.776V41.776C153.627 41.776 156.051 42.5179 157.661 43.8504L158.937 42.3096ZM150.235 39.776H141.883V41.776H150.235V39.776ZM142.883 40.776V28.968H140.883V40.776H142.883ZM141.883 29.968H148.219V27.968H141.883V29.968ZM148.219 29.968C151.675 29.968 154.509 29.2385 156.599 27.6527L155.391 26.0593C153.769 27.2895 151.419 27.968 148.219 27.968V29.968ZM156.616 27.6395C158.726 25.9663 159.779 23.6863 159.779 20.904H157.779C157.779 23.1137 156.976 24.8017 155.374 26.0725L156.616 27.6395ZM159.779 20.904C159.779 18.1748 158.893 15.9282 157.04 14.2973L155.718 15.7987C157.065 16.9838 157.779 18.6412 157.779 20.904H159.779ZM157.056 14.3121C155.204 12.6081 152.552 11.84 149.275 11.84V13.84C152.27 13.84 154.354 14.5439 155.702 15.7839L157.056 14.3121ZM149.275 11.84C146.226 11.84 143.57 12.5878 141.358 14.1322C139.151 15.6738 137.461 17.9577 136.253 20.9094L138.105 21.6666C139.201 18.9863 140.679 17.0462 142.504 15.7718C144.324 14.5002 146.564 13.84 149.275 13.84V11.84ZM137.681 20.4234L126.449 13.8954L125.445 15.6246L136.677 22.1526L137.681 20.4234ZM126.85 15.1902C129.052 10.5685 132.011 7.15223 135.71 4.8845C139.411 2.61519 143.917 1.456 149.275 1.456V-0.544004C143.625 -0.544004 138.739 0.680798 134.664 3.1795C130.587 5.67977 127.386 9.41551 125.044 14.3298L126.85 15.1902ZM149.275 1.456C155.744 1.456 160.939 3.19328 164.948 6.5945L166.242 5.06949C161.803 1.30271 156.118 -0.544004 149.275 -0.544004V1.456ZM164.948 6.5945C168.933 9.97529 170.931 14.4246 170.931 20.04H172.931C172.931 13.8794 170.705 8.8567 166.242 5.06949L164.948 6.5945ZM170.931 20.04C170.931 25.7409 168.68 30.1722 164.147 33.4365L165.315 35.0595C170.382 31.4118 172.931 26.3711 172.931 20.04H170.931ZM226.128 69L225.179 69.3162L225.407 70H226.128V69ZM222.096 56.904L223.044 56.5878L222.816 55.904H222.096V56.904ZM195.311 56.904V55.904H194.591L194.363 56.5878L195.311 56.904ZM191.279 69V70H192L192.228 69.3162L191.279 69ZM176.975 69L176.032 68.6696L175.566 70H176.975V69ZM200.495 1.8V0.799995H199.786L199.552 1.46964L200.495 1.8ZM216.911 1.8L217.855 1.46844L217.62 0.799995H216.911V1.8ZM240.527 69V70H241.939L241.471 68.6684L240.527 69ZM199.536 44.52L198.587 44.2018L198.145 45.52H199.536V44.52ZM217.967 44.52V45.52H219.358L218.916 44.2018L217.967 44.52ZM208.751 17.064L209.7 16.7458L208.751 13.9215L207.803 16.7458L208.751 17.064ZM227.076 68.6838L223.044 56.5878L221.147 57.2202L225.179 69.3162L227.076 68.6838ZM222.096 55.904H195.311V57.904H222.096V55.904ZM194.363 56.5878L190.331 68.6838L192.228 69.3162L196.26 57.2202L194.363 56.5878ZM191.279 68H176.975V70H191.279V68ZM177.919 69.3304L201.439 2.13035L199.552 1.46964L176.032 68.6696L177.919 69.3304ZM200.495 2.8H216.911V0.799995H200.495V2.8ZM215.968 2.13155L239.584 69.3316L241.471 68.6684L217.855 1.46844L215.968 2.13155ZM240.527 68H226.128V70H240.527V68ZM199.536 45.52H217.967V43.52H199.536V45.52ZM218.916 44.2018L209.7 16.7458L207.803 17.3822L217.019 44.8382L218.916 44.2018ZM207.803 16.7458L198.587 44.2018L200.484 44.8382L209.7 17.3822L207.803 16.7458ZM285.26 1.8V0.799995H284.26V1.8H285.26ZM298.413 1.8H299.413V0.799995H298.413V1.8ZM298.413 69V70H299.413V69H298.413ZM285.26 69H284.26V70H285.26V69ZM285.26 41.16H286.26V40.16H285.26V41.16ZM260.301 41.16V40.16H259.301V41.16H260.301ZM260.301 69V70H261.301V69H260.301ZM247.053 69H246.053V70H247.053V69ZM247.053 1.8V0.799995H246.053V1.8H247.053ZM260.301 1.8H261.301V0.799995H260.301V1.8ZM260.301 28.488H259.301V29.488H260.301V28.488ZM285.26 28.488V29.488H286.26V28.488H285.26ZM285.26 2.8H298.413V0.799995H285.26V2.8ZM297.413 1.8V69H299.413V1.8H297.413ZM298.413 68H285.26V70H298.413V68ZM286.26 69V41.16H284.26V69H286.26ZM285.26 40.16H260.301V42.16H285.26V40.16ZM259.301 41.16V69H261.301V41.16H259.301ZM260.301 68H247.053V70H260.301V68ZM248.053 69V1.8H246.053V69H248.053ZM247.053 2.8H260.301V0.799995H247.053V2.8ZM259.301 1.8V28.488H261.301V1.8H259.301ZM260.301 29.488H285.26V27.488H260.301V29.488ZM286.26 28.488V1.8H284.26V28.488H286.26ZM352.272 30.408L351.57 31.1202L352.272 30.408ZM352.272 62.472L352.974 63.1842L352.272 62.472ZM310.896 69H309.896V70H310.896V69ZM310.896 1.8V0.799995H309.896V1.8H310.896ZM324.144 1.8H325.144V0.799995H324.144V1.8ZM324.144 23.88H323.144V24.88H324.144V23.88ZM342.96 39.24L342.23 39.9232L342.236 39.9291L342.241 39.935L342.96 39.24ZM324.144 36.264V35.264H323.144V36.264H324.144ZM324.144 56.616H323.144V57.616H324.144V56.616ZM335.952 24.88C342.166 24.88 347.35 26.9612 351.57 31.1202L352.974 29.6958C348.362 25.1508 342.667 22.88 335.952 22.88V24.88ZM351.57 31.1202C355.791 35.2797 357.896 40.3652 357.896 46.44H359.896C359.896 39.8428 357.586 34.2403 352.974 29.6958L351.57 31.1202ZM357.896 46.44C357.896 52.5148 355.791 57.6003 351.57 61.7598L352.974 63.1842C357.586 58.6397 359.896 53.0372 359.896 46.44H357.896ZM351.57 61.7598C347.35 65.9188 342.166 68 335.952 68V70C342.667 70 348.362 67.7292 352.974 63.1842L351.57 61.7598ZM335.952 68H310.896V70H335.952V68ZM311.896 69V1.8H309.896V69H311.896ZM310.896 2.8H324.144V0.799995H310.896V2.8ZM323.144 1.8V23.88H325.144V1.8H323.144ZM324.144 24.88H335.952V22.88H324.144V24.88ZM335.952 57.616C339.023 57.616 341.624 56.5575 343.679 54.431L342.241 53.041C340.585 54.7545 338.514 55.616 335.952 55.616V57.616ZM343.679 54.431C345.735 52.3047 346.744 49.6143 346.744 46.44H344.744C344.744 49.1537 343.898 51.3273 342.241 53.041L343.679 54.431ZM346.744 46.44C346.744 43.323 345.73 40.6669 343.679 38.545L342.241 39.935C343.902 41.6531 344.744 43.797 344.744 46.44H346.744ZM343.691 38.5568C341.638 36.3625 339.034 35.264 335.952 35.264V37.264C338.503 37.264 340.571 38.1495 342.23 39.9232L343.691 38.5568ZM335.952 35.264H324.144V37.264H335.952V35.264ZM323.144 36.264V56.616H325.144V36.264H323.144ZM324.144 57.616H335.952V55.616H324.144V57.616Z" fill="#82B5D2" fill-opacity="0.4"/>
</g>
<defs>
<filter id="filter0_dd" x="0.240234" y="0.456055" width="362.656" height="77.888" filterUnits="userSpaceOnUse" color-interpolation-filters="sRGB">
<feFlood flood-opacity="0" result="BackgroundImageFix"/>
<feColorMatrix in="SourceAlpha" type="matrix" values="0 0 0 0 0 0 0 0 0 0 0 0 0 0 0 0 0 0 127 0"/>
<feOffset dy="4"/>
<feGaussianBlur stdDeviation="2"/>
<feColorMatrix type="matrix" values="0 0 0 0 0 0 0 0 0 0 0 0 0 0 0 0 0 0 0.25 0"/>
<feBlend mode="normal" in2="BackgroundImageFix" result="effect1_dropShadow"/>
<feColorMatrix in="SourceAlpha" type="matrix" values="0 0 0 0 0 0 0 0 0 0 0 0 0 0 0 0 0 0 127 0"/>
<feOffset dy="4"/>
<feGaussianBlur stdDeviation="2"/>
<feColorMatrix type="matrix" values="0 0 0 0 0 0 0 0 0 0 0 0 0 0 0 0 0 0 0.25 0"/>
<feBlend mode="normal" in2="effect1_dropShadow" result="effect2_dropShadow"/>
<feBlend mode="normal" in="SourceGraphic" in2="effect2_dropShadow" result="shape"/>
</filter>
</defs>
</svg>
