<svg width="64" height="64" viewBox="0 0 64 64" fill="none" xmlns="http://www.w3.org/2000/svg">
<circle cx="32" cy="32" r="32" fill="#0067FE"/>
<g clip-path="url(#clip0)">
<path d="M19.1079 30.7173V41.8106H23.8044L24.0416 41.8385C28.4017 42.8553 31.2909 43.5885 32.7309 44.0426C34.6436 44.6456 35.3566 44.7928 36.6539 44.8796C37.6242 44.9463 38.7263 44.5727 39.2285 44.0612C39.5059 43.7791 39.7136 43.1994 39.7958 42.3004C39.8128 42.1119 39.8802 41.9314 39.9909 41.7779C40.1016 41.6244 40.2516 41.5035 40.4251 41.4278C40.811 41.2604 41.1319 40.9876 41.4 40.5908C41.648 40.2281 41.8092 39.5523 41.8387 38.5742C41.8439 38.3944 41.8948 38.2189 41.9868 38.0643C42.0787 37.9097 42.2086 37.7811 42.3641 37.6907C43.2662 37.1684 43.7126 36.5794 43.8056 35.8881C43.9079 35.1239 43.6599 34.2637 43.0105 33.2841C42.8581 33.0543 42.8014 32.7742 42.8523 32.5033C42.9033 32.2324 43.0579 31.992 43.2833 31.8333C43.9048 31.3962 44.2458 30.7886 44.3311 29.9268C44.4675 28.5535 43.5917 27.5382 41.6093 27.3352C39.8436 27.1606 38.0609 27.3092 36.3486 27.7738C36.1544 27.8246 35.9496 27.8188 35.7586 27.7572C35.5675 27.6956 35.398 27.5807 35.27 27.426C35.142 27.2713 35.0609 27.0833 35.0361 26.884C35.0114 26.6848 35.0441 26.4826 35.1303 26.3013C35.9053 24.6614 36.3362 23.3083 36.4369 22.2605C36.5687 20.8701 36.2478 19.8626 35.4976 19.0318C34.9288 18.4025 34.0189 18.0429 33.6779 18.1173C33.2284 18.2134 32.9355 18.4738 32.5542 19.3852C32.3294 19.9246 32.2209 20.3834 32.0349 21.4545C31.8567 22.4713 31.759 22.9301 31.556 23.5315C30.9437 25.3543 29.4418 27.2437 27.4252 28.5473C26.0119 29.4598 24.4802 30.1743 22.8729 30.6708C22.7725 30.7017 22.668 30.7174 22.5629 30.7173H19.1079ZM19.0428 43.9233C18.5422 43.9372 18.0927 43.8256 17.716 43.5621C17.2355 43.2258 17.0092 42.6957 17.0046 42.085L17.0092 30.7343C16.9565 30.1298 17.1348 29.5749 17.5564 29.1626C17.9516 28.7751 18.4678 28.5922 19.0134 28.6046H22.4001C23.7701 28.1681 25.0762 27.5521 26.2844 26.7725C27.9088 25.7216 29.1054 24.215 29.5627 22.8572C29.7192 22.3891 29.8029 22.0016 29.961 21.0902C30.1749 19.8673 30.3082 19.2984 30.6151 18.5668C31.2506 17.0447 32.0845 16.3007 33.2346 16.0512C34.3661 15.8063 36.0138 16.4588 37.0554 17.612C38.2101 18.8892 38.7201 20.4873 38.531 22.462C38.4504 23.3114 38.2148 24.2615 37.8273 25.3202C39.1506 25.1273 40.4927 25.0982 41.8232 25.2334C44.934 25.5511 46.6809 27.577 46.4267 30.1376C46.3151 31.2412 45.9152 32.1789 45.2347 32.9152C45.8067 34.0172 46.0345 35.1069 45.8919 36.1702C45.7276 37.3947 45.0456 38.4146 43.911 39.2066C43.8227 40.2808 43.5762 41.1379 43.1391 41.7796C42.7947 42.2981 42.3454 42.7385 41.8201 43.0723C41.6527 44.1325 41.3008 44.9618 40.7258 45.5446C39.7725 46.5149 38.0691 47.093 36.5129 46.9876C35.0357 46.8884 34.1615 46.7086 32.1 46.0576C30.7407 45.6283 27.9259 44.9153 23.6835 43.9233H19.0413H19.0428ZM21.6794 30.2352C21.679 30.0966 21.7059 29.9592 21.7587 29.8309C21.8115 29.7027 21.8891 29.5861 21.987 29.4879C22.0849 29.3897 22.2012 29.3118 22.3293 29.2587C22.4574 29.2055 22.5947 29.1781 22.7334 29.1781C22.8718 29.1785 23.0088 29.2062 23.1365 29.2595C23.2642 29.3129 23.3802 29.3909 23.4778 29.489C23.5754 29.5872 23.6527 29.7036 23.7053 29.8316C23.7578 29.9597 23.7847 30.0968 23.7843 30.2352V42.1361C23.7845 42.2745 23.7574 42.4116 23.7047 42.5396C23.6519 42.6676 23.5744 42.7839 23.4767 42.8819C23.379 42.9799 23.2629 43.0577 23.1351 43.1109C23.0073 43.164 22.8703 43.1915 22.7318 43.1917C22.5934 43.1915 22.4564 43.164 22.3286 43.1109C22.2008 43.0577 22.0847 42.9799 21.987 42.8819C21.8893 42.7839 21.8118 42.6676 21.759 42.5396C21.7063 42.4116 21.6792 42.2745 21.6794 42.1361V30.2352Z" fill="white"/>
</g>
<defs>
<clipPath id="clip0">
<rect width="31" height="31" fill="white" transform="translate(17 16)"/>
</clipPath>
</defs>
</svg>
