<svg width="64" height="64" viewBox="0 0 64 64" fill="none" xmlns="http://www.w3.org/2000/svg">
<circle cx="32" cy="32" r="32" fill="#0067FE"/>
<path fill-rule="evenodd" clip-rule="evenodd" d="M46.4808 23.024C42.9602 21.9087 36.827 26.0851 32.0835 26.0851C27.3161 26.0851 21.1591 21.9141 17.6279 23.0402C12.5349 24.6661 11.0049 21.4357 11.0049 24.3302C11.0049 24.3302 10.4941 40.5842 19.862 42.8363C25.1561 43.6049 28.9811 46.8541 32.0835 46.8541C35.2388 46.8541 37.8779 43.9543 44.4373 42.8094C52.9449 41.6296 53.1673 24.3302 53.1673 24.3302C53.1673 21.4223 51.6055 24.6473 46.4808 23.024ZM42.2323 34.9109C39.9717 35.7037 37.7694 35.8219 36.2605 35.3543C35.3235 35.064 34.6326 35.5505 34.127 35.752C33.6267 35.9536 33.6267 32.2583 35.7126 30.506C36.7449 29.6326 37.1764 29.3585 38.8705 28.7645C42.5367 27.4826 47.8335 29.4472 47.8335 29.4472C47.8335 29.4472 45.8905 33.6316 42.2323 34.9109ZM16.2567 29.4472C16.2567 29.4472 21.5535 27.4853 25.2196 28.7645C26.9191 29.3612 27.3505 29.6326 28.3776 30.506C30.4661 32.2583 30.4661 35.9536 29.9658 35.752C29.4629 35.5505 28.7694 35.0614 27.8349 35.3543C26.3208 35.8219 24.1211 35.7037 21.8579 34.9109C18.1996 33.6316 16.2567 29.4472 16.2567 29.4472Z" fill="white"/>
</svg>
