<svg width="78" height="75" viewBox="0 0 78 75" fill="none" xmlns="http://www.w3.org/2000/svg">
<path d="M38.023 14.9317C38.3292 14.0249 39.6117 14.0249 39.9179 14.9317L41.6468 20.0519C42.0585 21.2713 43.2021 22.0922 44.4891 22.0922L49.9154 22.0922C50.8934 22.0922 51.2899 23.3514 50.4884 23.9118L46.2325 26.8872C45.1404 27.6507 44.6828 29.0431 45.1091 30.3056L46.7656 35.2116C47.0745 36.1262 46.0364 36.9042 45.2452 36.3511L40.6894 33.166C39.6571 32.4443 38.2838 32.4443 37.2515 33.166L32.6957 36.3511C31.9046 36.9042 30.8664 36.1262 31.1753 35.2116L32.8318 30.3056C33.2581 29.0431 32.8006 27.6507 31.7084 26.8872L27.4525 23.9118C26.651 23.3514 27.0475 22.0922 28.0255 22.0922L33.4518 22.0922C34.7388 22.0922 35.8824 21.2713 36.2941 20.052L38.023 14.9317Z" stroke="#0067FE" stroke-width="2"/>
<path d="M31.1372 46C31.1372 45.4477 30.6895 45 30.1372 45C29.5849 45 29.1372 45.4477 29.1372 46H31.1372ZM47.7647 46C47.7647 45.4477 47.3169 45 46.7647 45C46.2124 45 45.7647 45.4477 45.7647 46H47.7647ZM45.0874 66.4562L45.7647 65.7205L45.0874 66.4562ZM37.7737 60.9712L37.0965 60.2354L37.7737 60.9712ZM31.8144 66.4562L31.1372 65.7205L31.8144 66.4562ZM29.1372 46V65.7205H31.1372V46H29.1372ZM32.4917 67.192L38.4509 61.7069L37.0965 60.2354L31.1372 65.7205L32.4917 67.192ZM38.4509 61.7069L44.4102 67.192L45.7647 65.7205L39.8054 60.2354L38.4509 61.7069ZM47.7647 65.7205V46H45.7647V65.7205H47.7647ZM44.4102 67.192C45.692 68.3718 47.7647 67.4626 47.7647 65.7205H45.7647H45.7647L44.4102 67.192ZM38.4509 61.7069H38.4509L39.8054 60.2354C39.0399 59.5308 37.862 59.5308 37.0965 60.2354L38.4509 61.7069ZM29.1372 65.7205C29.1372 67.4626 31.2098 68.3718 32.4917 67.192L31.1372 65.7205H29.1372Z" fill="#0067FE"/>
<path d="M58.2351 26.5C58.2351 36.6581 49.4384 45 38.4508 45C27.4632 45 18.6665 36.6581 18.6665 26.5C18.6665 16.3419 27.4632 8 38.4508 8C49.4384 8 58.2351 16.3419 58.2351 26.5Z" stroke="#0067FE" stroke-width="2"/>
</svg>
