<svg width="64" height="64" viewBox="0 0 64 64" fill="none" xmlns="http://www.w3.org/2000/svg">
<circle cx="32" cy="32" r="32" fill="#0067FE"/>
<path d="M36.4275 13.5376L34.5375 15.4276L37.3375 18.2276C37.7225 18.6651 37.915 19.1726 37.915 19.7501C37.915 20.3276 37.7225 20.8701 37.3375 21.2551L31.125 27.5726L32.875 29.4626L39.2275 23.1451C40.155 22.1126 40.61 20.9751 40.61 19.7501C40.61 18.5251 40.155 17.3701 39.2275 16.3376L36.4275 13.5376ZM29.4625 17.0726L27.5725 18.9626L28.64 19.9426C29.025 20.3276 29.2175 20.8526 29.2175 21.5001C29.2175 22.1476 29.025 22.6726 28.64 23.0576L27.5725 24.0376L29.4625 25.9276L30.4425 24.8601C31.37 23.8276 31.8425 22.7076 31.8425 21.5001C31.8425 20.2401 31.37 19.1026 30.4425 18.0526L29.4625 17.0726ZM47.75 19.8551C46.5425 19.8551 45.4225 20.3276 44.39 21.2551L34.5375 31.1251L36.4275 32.8751L46.1925 23.1451C46.63 22.7076 47.155 22.4801 47.75 22.4801C48.345 22.4801 48.87 22.7076 49.3075 23.1451L50.375 24.2126L52.1775 22.3226L51.1975 21.2551C50.165 20.3276 49.01 19.8551 47.75 19.8551ZM23.25 25.0001L14.5 49.5001L39 40.7501L23.25 25.0001ZM44.25 30.3551C43.025 30.3551 41.905 30.8276 40.855 31.7551L38.0725 34.5376L39.9625 36.4276L42.745 33.6451C43.1825 33.2076 43.6725 32.9801 44.25 32.9801C44.8275 32.9801 45.3525 33.2076 45.79 33.6451L48.625 36.4276L50.4625 34.6251L47.6625 31.7551C46.63 30.8276 45.475 30.3551 44.25 30.3551Z" fill="white"/>
</svg>
