<svg width="65" height="58" viewBox="0 0 65 58" fill="none" xmlns="http://www.w3.org/2000/svg">
<path d="M24.976 13.5962C24.5579 13.9372 24.2176 14.2498 23.8286 14.515C22.2923 15.5853 20.3767 15.5001 19.1709 14.3255C18.0138 13.1984 17.9555 11.626 19.0737 10.4704C20.1725 9.31482 21.5533 9.04013 23.0702 9.43795C23.6439 9.58951 24.1787 9.87367 24.7815 10.1199C25.0344 9.22957 24.9955 8.32972 24.7718 7.40146C24.3731 7.62879 24.0231 7.86559 23.6341 8.03609C22.3701 8.59494 21.0573 8.8128 19.7252 8.24447C18.6361 7.78034 17.9749 6.97522 17.9263 5.79121C17.8679 4.63562 18.4416 3.78313 19.4529 3.21481C21.2518 2.21077 23.5855 2.53282 25.0441 3.95363C25.1024 4.01046 25.1511 4.05782 25.3066 4.1999C25.6081 3.57475 25.8998 3.00642 26.1623 2.42863C26.279 2.16341 26.3568 1.87925 26.4443 1.59509C26.6193 1.04571 27.1055 0.742602 27.6403 0.875211C28.1071 0.988876 28.3891 1.50984 28.2529 2.06869C27.9418 3.30953 27.3778 4.44618 26.6193 5.4881C26.3957 5.80068 26.3276 6.05643 26.454 6.44478C27.018 8.13081 26.9888 9.80736 26.3276 11.4744C26.2693 11.626 26.2693 11.8439 26.3374 11.9765C27.3972 13.8614 27.1444 15.86 25.6567 17.5555C25.083 18.2091 24.5579 18.9005 23.9842 19.6015C24.9469 19.9898 25.822 20.3403 26.6971 20.7002C27.6598 17.9533 29.5851 16.4852 32.5995 16.7409C34.9332 16.9398 36.6932 18.569 37.2474 20.776C37.8114 23.0398 36.8488 25.0669 34.3984 26.7055C34.4956 26.8192 34.5831 26.9423 34.6803 27.0465C35.8764 28.3347 36.9363 29.7082 37.7628 31.2521C37.9184 31.5363 38.0739 31.5647 38.3559 31.4794C39.7853 31.0532 41.2439 30.968 42.7219 31.0721C42.8969 31.0816 43.1303 30.949 43.2664 30.8164C45.0167 29.1588 47.0782 28.2968 49.548 28.5431C50.8899 28.6757 52.1637 29.1304 53.2528 29.8881C54.8475 30.9964 56.3546 32.2183 57.9104 33.3833C58.5717 33.8853 59.2329 34.3874 59.9427 34.8231C60.9151 35.4198 61.9361 35.5051 63.0154 34.9936C63.3071 34.861 63.7544 34.842 64.0461 34.9652C64.2892 35.0694 64.5323 35.4388 64.5518 35.704C64.5712 35.9408 64.3281 36.2912 64.1045 36.4239C62.4903 37.3426 60.7984 37.4374 59.1843 36.4996C58.0077 35.8176 56.9381 34.9652 55.8296 34.16C54.7113 33.3454 53.6612 32.4551 52.5137 31.6878C51.2302 30.8353 49.8008 30.2765 48.1964 30.3712C47.0198 30.447 45.9891 30.8732 45.007 31.6499C45.1917 31.7352 45.3279 31.8015 45.4543 31.8678C47.0393 32.6729 48.2645 33.8096 48.9937 35.4103C50.1703 37.9678 48.6631 40.8189 45.9405 41.2546C44.2485 41.5198 42.5663 40.6863 41.6426 39.1234C40.5535 37.2574 40.5827 35.3346 41.3995 33.3833C41.4481 33.2697 41.4967 33.156 41.5453 33.0423C41.5551 33.0139 41.5453 32.9855 41.5356 32.8245C40.6119 32.9381 39.6881 33.0423 38.7449 33.156C39.0366 34.0748 39.3186 34.861 39.5228 35.6661C39.9798 37.4279 40.0868 39.2086 39.4547 40.9515C38.881 42.5239 37.8211 43.6795 36.2167 44.3236C30.3046 46.6916 24.3926 49.0596 18.4805 51.4276C13.4339 53.4452 8.36782 55.4722 3.31146 57.5087C2.3877 57.8781 1.51256 57.8876 0.744379 57.2056C0.0831627 56.6088 -0.0724176 55.5953 0.335981 54.6292C3.74903 46.4642 7.17179 38.2993 10.5848 30.1344C11.635 27.6243 12.6949 25.1142 13.7256 22.5946C14.6299 20.3971 16.3997 19.3268 18.6945 19.0237C19.6668 18.9005 20.6781 19.0426 21.6699 19.0426C21.8255 19.0426 22.0492 18.9858 22.1367 18.8816C22.8173 18.0575 23.4688 17.1956 24.1398 16.362C24.6746 15.7085 25.083 15.0075 25.0538 14.1361C25.0441 13.9656 25.0052 13.8046 24.976 13.5962ZM20.9698 20.8613C20.4739 20.8613 19.9391 20.8328 19.414 20.8613C17.2651 20.9749 15.8162 22.0547 15.3203 23.9681C14.9994 25.2089 15.0869 26.4498 15.437 27.7096C16.1566 30.2481 17.4401 32.5024 19.0542 34.5673C19.9099 35.6661 20.9212 36.6512 21.9325 37.6268C23.9648 39.597 26.3082 41.122 28.9725 42.1545C30.4894 42.7417 32.0452 43.1111 33.6885 43.0259C36.4792 42.8838 38.0739 41.2546 38.0837 38.5267C38.0837 36.9922 37.6558 35.543 37.0724 34.1316C37.0238 34.0274 36.9557 33.9232 36.8876 33.8001C36.6057 33.9422 36.3431 34.0558 36.0903 34.1884C34.2233 35.1735 32.6675 36.5091 31.3354 38.1099C31.0534 38.4509 30.713 38.574 30.2852 38.4509C29.5656 38.2425 29.3712 37.5321 29.8768 36.8975C31.4132 34.9462 33.2996 33.4023 35.5847 32.3225C35.7305 32.2561 35.8861 32.1709 36.0417 32.0951C35.0596 30.2765 33.883 28.6568 32.4439 27.2265C32.3369 27.1223 32.1522 27.056 31.9966 27.0276C31.5396 26.9613 31.0631 26.9992 30.6353 26.876C28.9336 26.4024 27.475 25.5405 26.9888 23.7787C26.7166 22.803 26.104 22.3673 25.258 22.0358C25.1511 21.9979 25.0538 21.9411 24.9566 21.9032C24.2954 21.6569 23.6439 21.4201 22.9632 21.1738C22.4576 22.2537 22.0881 23.2766 22.0005 24.3849C21.9617 24.9721 21.5533 25.3605 21.0087 25.3415C20.4447 25.3321 20.1044 24.9532 20.1044 24.3186C20.1044 24.1481 20.1044 23.9776 20.153 23.8165C20.4156 22.8788 20.6781 21.9221 20.9698 20.8613ZM10.2056 36.1586C10.1764 36.206 10.1278 36.2818 10.0986 36.367C9.66108 37.4374 9.24296 38.5267 8.76649 39.5781C8.55257 40.0517 8.60119 40.44 8.83456 40.8757C9.74859 42.5996 11.1877 43.7931 12.8894 44.7309C15.9913 46.4264 19.3849 47.1936 22.8757 47.6483C23.0507 47.6672 23.2452 47.6009 23.4202 47.5346C24.4801 47.1273 25.5303 46.701 26.5902 46.2843C27.0569 46.1043 27.5139 45.9149 28.0974 45.6781C27.8348 45.6212 27.6987 45.5833 27.5625 45.5644C24.976 45.2234 22.477 44.5888 20.0558 43.6321C17.1387 42.4765 14.4646 40.9326 12.3059 38.6687C11.5475 37.892 10.9057 37.0111 10.2056 36.1586ZM27.8251 43.7836C27.3 43.5468 26.736 43.3669 26.2596 43.0638C24.9566 42.2208 23.6536 41.3777 22.4381 40.4211C21.2713 39.5023 19.9683 38.7445 19.0251 37.5794C18.6458 37.1058 18.2472 36.6417 17.8388 36.1965C17.6443 35.9881 17.4109 35.7798 17.1581 35.6471C15.3106 34.681 13.6673 33.4875 12.4032 31.8204C12.3643 31.7636 12.3059 31.7257 12.2184 31.6499C11.9364 32.3225 11.6545 32.9476 11.4308 33.5822C11.3627 33.7717 11.3627 34.0369 11.4503 34.2263C11.9559 35.3725 12.6852 36.3765 13.5409 37.2858C15.9815 39.8717 19.0154 41.5293 22.3798 42.6659C24.1301 43.2532 25.9387 43.651 27.8251 43.7836ZM28.6613 21.9221C28.6905 23.9113 30.1491 25.37 31.948 25.351C34.1942 25.3321 35.5555 23.7787 35.5944 21.9695C35.6333 20.0846 34.0483 18.5406 32.123 18.5311C30.2074 18.5217 28.6711 20.0277 28.6613 21.9221ZM19.6766 49.088C19.4335 49.0217 19.3168 48.9933 19.2001 48.9554C17.7124 48.5292 16.1955 48.1787 14.7466 47.6577C11.917 46.6347 9.37909 45.1666 7.64826 42.6375C7.63854 42.6186 7.58992 42.6281 7.53157 42.6186C7.23014 43.3195 6.90925 44.0205 6.61754 44.7309C6.5592 44.8635 6.59809 45.0624 6.65643 45.2139C7.00649 46.1043 7.55102 46.881 8.23168 47.5535C9.79721 49.0975 11.7711 49.8268 13.8909 50.2815C15.1258 50.5467 16.3219 50.6225 17.4595 49.95C17.5276 49.9121 17.6054 49.8931 17.6832 49.8647C18.3152 49.6184 18.9376 49.3722 19.6766 49.088ZM42.8191 36.1018C42.8191 37.3332 43.2664 38.3277 44.1805 39.0855C44.9875 39.758 46.1058 39.7391 46.9129 39.0666C47.7005 38.413 47.9436 37.3995 47.506 36.3765C46.8545 34.8231 45.6099 33.8853 44.0152 33.3454C43.9082 33.3075 43.6846 33.4023 43.6165 33.497C43.1206 34.3116 42.8386 35.202 42.8191 36.1018ZM5.5771 47.2315C5.13952 48.2639 4.75057 49.2206 4.313 50.1489C4.15742 50.4899 4.18659 50.7646 4.40052 51.0487C4.53665 51.2382 4.67278 51.4465 4.85754 51.5792C6.54947 52.7726 8.35809 53.4736 10.4584 52.6874C11.1196 52.4411 11.7809 52.1664 12.5782 51.8538C9.66108 51.0298 7.22041 49.77 5.5771 47.2315ZM24.0717 5.62071C23.4786 4.53143 22.5256 4.42723 21.5046 4.6072C21.0573 4.68298 20.5809 4.85348 20.2114 5.10922C19.7349 5.44074 19.8127 6.12273 20.3086 6.44478C20.5031 6.56792 20.7365 6.66264 20.9601 6.71C22.2242 6.96575 23.1577 6.34059 24.0717 5.62071ZM6.05356 54.506C5.12008 53.9377 4.20604 53.3788 3.25311 52.8011C2.87389 53.682 2.45576 54.6102 2.07654 55.548C1.95985 55.8416 2.1835 56.0026 2.51411 55.8795C3.71013 55.4248 4.89643 54.9607 6.05356 54.506ZM24.1009 12.1564C23.5175 11.6355 22.9438 11.4081 22.3312 11.3324C21.6894 11.2566 21.106 11.4176 20.6489 11.9007C20.3086 12.2701 20.2892 12.6206 20.5906 13.0184C21.0087 13.5678 21.8352 13.7667 22.5159 13.3783C23.0702 13.0563 23.5466 12.5922 24.1009 12.1564ZM13.6381 28.1358C13.502 28.4389 13.395 28.6378 13.3172 28.8557C13.2492 29.0546 13.0936 29.3103 13.1714 29.4524C13.6089 30.2954 14.1437 31.0816 14.8925 31.7162C14.698 31.1384 14.4452 30.5796 14.2313 30.0113C14.0173 29.424 13.852 28.8367 13.6381 28.1358Z" fill="#0067FE"/>
<path d="M46.485 11.4176C45.5807 11.2282 44.55 11.0387 43.5387 10.8019C43.0525 10.6882 42.6927 10.7261 42.3232 11.105C41.6717 11.7775 40.9425 12.3743 40.2423 13.0089C39.9506 13.2741 39.6395 13.4446 39.2214 13.2646C38.8227 13.0941 38.6671 12.81 38.6282 12.4027C38.531 11.4081 38.3948 10.4136 38.3073 9.40952C38.2781 9.11588 38.1712 8.94539 37.8989 8.81278C36.9946 8.36759 36.1 7.89399 35.2054 7.43933C34.8554 7.25936 34.5442 7.05097 34.5539 6.60579C34.5637 6.17007 34.8456 5.89538 35.2249 5.72488C36.1681 5.28917 37.121 4.86293 38.0739 4.45563C38.3559 4.33249 38.4823 4.17147 38.531 3.87783C38.6963 2.89274 38.9005 1.90764 39.0755 0.92255C39.1533 0.505779 39.3089 0.145841 39.7853 0.0321763C40.2423 -0.0814885 40.573 0.117425 40.8647 0.448947C41.5551 1.21618 42.2454 1.97395 42.965 2.71277C43.1011 2.84538 43.3734 2.9401 43.5679 2.92115C44.5597 2.79802 45.5418 2.62752 46.5239 2.47597C46.9712 2.40019 47.4282 2.34336 47.7297 2.77907C48.0214 3.20532 47.9047 3.62209 47.6519 4.03886C47.1462 4.86293 46.6795 5.69647 46.1739 6.52054C46.0086 6.79523 46.0086 7.00361 46.1447 7.28778C46.6017 8.21604 47.0393 9.16324 47.4671 10.101C47.7588 10.7261 47.3018 11.4365 46.485 11.4176ZM45.1723 4.56929C44.4722 4.66401 43.879 4.71137 43.2956 4.81557C42.7414 4.91976 42.3232 4.77768 41.9537 4.35144C41.5648 3.90625 41.1175 3.48948 40.641 3.0064C40.5146 3.71681 40.3979 4.31355 40.291 4.91976C40.2229 5.35547 39.9895 5.63964 39.5714 5.81961C38.9685 6.07535 38.3948 6.36899 37.7239 6.68156C38.3462 7.00361 38.8616 7.29725 39.3964 7.54352C39.902 7.78032 40.1743 8.12132 40.1937 8.68964C40.2132 9.27691 40.291 9.86418 40.359 10.5556C40.8938 10.0726 41.3703 9.69368 41.7787 9.24849C42.1871 8.8033 42.6247 8.72753 43.1789 8.86014C43.7526 8.99275 44.3361 9.05905 44.9973 9.17272C44.6667 8.5002 44.4041 7.90346 44.093 7.33514C43.879 6.94678 43.8985 6.62473 44.1416 6.25532C44.4916 5.73436 44.8028 5.18498 45.1723 4.56929Z" fill="#0067FE"/>
<path d="M50.0439 18.588C49.723 19.4689 50.0634 20.0941 50.8996 20.5298C51.2399 20.7098 51.5316 20.9845 51.8525 21.2213C52.154 21.4486 52.2998 21.7422 52.222 22.1116C52.1442 22.5 51.94 22.7842 51.5219 22.8978C50.8996 23.0683 50.2773 23.2672 49.655 23.4188C49.373 23.4851 49.2368 23.6272 49.1493 23.8924C48.9646 24.4797 48.7506 25.0574 48.5562 25.6542C48.4298 26.0615 48.1867 26.3362 47.7394 26.393C47.3115 26.4498 47.0198 26.2415 46.8059 25.891C46.4947 25.4079 46.1349 24.9533 45.8432 24.4607C45.6585 24.1481 45.4251 24.0534 45.075 24.0724C44.5402 24.1008 43.9957 24.0818 43.4609 24.0818C42.9747 24.0913 42.5858 23.9019 42.3524 23.4946C42.1093 23.0778 42.294 22.6894 42.5663 22.339C42.9261 21.8748 43.315 21.4202 43.6457 20.9276C43.7526 20.7666 43.7915 20.5014 43.7429 20.3119C43.5581 19.6773 43.3248 19.0522 43.1108 18.427C42.9066 17.8303 43.2373 17.2998 43.879 17.3093C44.2291 17.3188 44.5889 17.4514 44.9292 17.5556C45.5029 17.7261 46.1058 18.1428 46.6211 18.0576C47.1657 17.9723 47.6227 17.404 48.1283 17.063C48.3422 16.9115 48.5659 16.7504 48.809 16.6557C49.4313 16.4189 50.005 16.7883 50.0439 17.4419C50.0536 17.8208 50.0439 18.1902 50.0439 18.588ZM45.4251 19.7626C45.921 20.7098 45.6876 21.477 44.9778 22.2064C46.0085 22.0359 46.6989 22.3958 47.1851 23.2862C47.3018 22.1779 47.9533 21.638 48.8382 21.5433C48.5756 21.2307 48.2256 20.9466 48.07 20.5866C47.9144 20.2362 47.9533 19.791 47.8949 19.289C47.1754 20.0657 46.3878 20.2362 45.4251 19.7626Z" fill="#0067FE"/>
<path d="M55.7421 14.0886C53.9043 14.0886 52.4166 12.6583 52.4166 10.8681C52.4068 9.10626 53.9335 7.61914 55.7324 7.61914C57.5507 7.61914 59.0579 9.08731 59.0676 10.8586C59.0676 12.6204 57.5604 14.0886 55.7421 14.0886ZM57.1618 10.8681C57.1715 10.1387 56.5103 9.47567 55.7518 9.46619C54.9642 9.45672 54.3321 10.0535 54.3224 10.8207C54.3127 11.5595 54.9642 12.2226 55.7226 12.232C56.4714 12.2415 57.1423 11.6164 57.1618 10.8681Z" fill="#0067FE"/>
<path d="M27.2422 30.6364C27.252 29.2535 28.3897 28.1453 29.8191 28.1453C31.229 28.1453 32.3764 29.2724 32.3764 30.6459C32.3764 31.9909 31.1707 33.156 29.7899 33.1465C28.3702 33.1465 27.2325 32.0288 27.2422 30.6364ZM30.4706 30.6459C30.4608 30.2859 30.1691 30.0113 29.8093 30.0113C29.4496 30.0113 29.1481 30.3049 29.1578 30.6554C29.1676 30.9869 29.4884 31.2995 29.8288 31.2995C30.1886 31.29 30.4706 31.0058 30.4706 30.6459Z" fill="#0067FE"/>
</svg>
