<svg width="21" height="21" viewBox="0 0 21 21" fill="none" xmlns="http://www.w3.org/2000/svg">
<path d="M16.1759 20.6734C15.9797 20.6728 15.7842 20.6513 15.5926 20.6092C11.9448 19.8546 8.58418 18.0853 5.89757 15.505C3.26829 12.9191 1.44475 9.62655 0.64757 6.02587C0.553572 5.57712 0.576643 5.11173 0.714562 4.67447C0.852482 4.23722 1.10061 3.84281 1.43507 3.5292L3.7684 1.28337C3.88758 1.17066 4.02919 1.08435 4.18398 1.03008C4.33877 0.9758 4.50327 0.954773 4.66674 0.968371C4.83623 0.986053 4.9998 1.04065 5.14593 1.12833C5.29206 1.21601 5.4172 1.33464 5.51257 1.47587L8.42923 5.7867C8.53861 5.95397 8.59141 6.15193 8.57986 6.35145C8.56831 6.55097 8.49302 6.74151 8.36507 6.89504L6.9009 8.64504C7.48403 9.93563 8.30985 11.1021 9.3334 12.0809C10.3503 13.0952 11.5523 13.9051 12.8742 14.4667L14.6884 13.0259C14.8408 12.9055 15.0262 12.8343 15.22 12.8218C15.4138 12.8092 15.6068 12.856 15.7734 12.9559L20.1776 15.8025C20.3287 15.8928 20.4575 16.0161 20.5542 16.1631C20.6509 16.3102 20.7131 16.4772 20.7361 16.6517C20.7591 16.8263 20.7424 17.0037 20.687 17.1708C20.6317 17.338 20.5393 17.4904 20.4167 17.6167L18.1417 19.8684C17.8833 20.1255 17.5766 20.329 17.2392 20.4672C16.9018 20.6053 16.5405 20.6754 16.1759 20.6734ZM4.5734 2.12337L2.24007 4.3692C2.05192 4.54453 1.91264 4.7658 1.83593 5.01127C1.75922 5.25674 1.74772 5.51795 1.80257 5.76921C2.54382 9.14795 4.24774 12.2397 6.7084 14.6709C9.23668 17.0984 12.3992 18.7626 15.8317 19.4717C16.0916 19.526 16.3608 19.515 16.6153 19.4397C16.8698 19.3643 17.1017 19.227 17.2901 19.04L19.5651 16.7884L15.3126 14.0409L13.3642 15.5925C13.2896 15.6516 13.2018 15.6915 13.1082 15.7088C13.0147 15.726 12.9183 15.7202 12.8276 15.6917C11.2098 15.0957 9.74375 14.1495 8.53424 12.9209C7.28319 11.7526 6.3121 10.3169 5.6934 8.72087C5.66723 8.62425 5.66636 8.52252 5.69088 8.42547C5.7154 8.32841 5.76448 8.2393 5.8334 8.1667L7.4084 6.28254L4.5734 2.12337Z" fill="#F2F2F2"/>
</svg>
