<svg width="66" height="66" viewBox="0 0 66 66" fill="none" xmlns="http://www.w3.org/2000/svg">
<ellipse cx="33.0002" cy="32.9999" rx="32.1579" ry="32.1579" fill="#0067FE"/>
<path d="M30.2951 24.2348C30.068 24.0887 29.8071 24.0078 29.5394 24.0005C29.2718 23.9933 29.0071 24.06 28.7729 24.1936C28.5387 24.3273 28.3435 24.5231 28.2076 24.7607C28.0717 24.9983 28 25.269 28 25.5447V41.4551C28 41.7342 28.0734 42.0082 28.2125 42.2479C28.3516 42.4875 28.5512 42.6838 28.79 42.816C29.0288 42.9481 29.298 43.0112 29.5688 42.9984C29.8396 42.9856 30.102 42.8974 30.3281 42.7433L42.3287 34.5595C42.5376 34.4169 42.7085 34.2227 42.8258 33.9946C42.943 33.7664 43.0029 33.5117 42.9999 33.2536C42.9969 32.9955 42.9312 32.7423 42.8087 32.5171C42.6862 32.2919 42.5108 32.1019 42.2987 31.9645L30.2981 24.2348H30.2951Z" fill="white"/>
</svg>
