<svg width="64" height="64" viewBox="0 0 64 64" fill="none" xmlns="http://www.w3.org/2000/svg">
<circle cx="32" cy="32" r="32" fill="#0067FE"/>
<path d="M32.1453 21.256V23.524H31.3413V22H25.6893V23.524H24.8853V21.256H25.2453C25.6693 21.232 25.9573 20.92 26.1093 20.32C26.2613 19.72 26.3653 18.88 26.4213 17.8L26.5053 15.688H31.1613V21.256H32.1453ZM27.2013 17.848C27.1613 18.744 27.0853 19.484 26.9733 20.068C26.8613 20.644 26.6613 21.04 26.3733 21.256H30.3093V16.444H27.2733L27.2013 17.848ZM36.4098 22.06C35.8018 22.06 35.2538 21.924 34.7658 21.652C34.2778 21.372 33.8938 20.988 33.6138 20.5C33.3338 20.012 33.1938 19.46 33.1938 18.844C33.1938 18.228 33.3338 17.676 33.6138 17.188C33.8938 16.7 34.2778 16.32 34.7658 16.048C35.2538 15.776 35.8018 15.64 36.4098 15.64C37.0178 15.64 37.5658 15.776 38.0538 16.048C38.5418 16.32 38.9218 16.7 39.1938 17.188C39.4738 17.676 39.6138 18.228 39.6138 18.844C39.6138 19.46 39.4738 20.012 39.1938 20.5C38.9218 20.988 38.5418 21.372 38.0538 21.652C37.5658 21.924 37.0178 22.06 36.4098 22.06ZM36.4098 21.304C36.8578 21.304 37.2578 21.204 37.6098 21.004C37.9698 20.796 38.2498 20.504 38.4498 20.128C38.6498 19.752 38.7498 19.324 38.7498 18.844C38.7498 18.364 38.6498 17.936 38.4498 17.56C38.2498 17.184 37.9698 16.896 37.6098 16.696C37.2578 16.488 36.8578 16.384 36.4098 16.384C35.9618 16.384 35.5578 16.488 35.1978 16.696C34.8458 16.896 34.5658 17.184 34.3577 17.56C34.1578 17.936 34.0578 18.364 34.0578 18.844C34.0578 19.324 34.1578 19.752 34.3577 20.128C34.5658 20.504 34.8458 20.796 35.1978 21.004C35.5578 21.204 35.9618 21.304 36.4098 21.304ZM14.1123 42.108C13.1403 42.108 12.2703 41.85 11.5023 41.334C10.7463 40.818 10.1523 40.08 9.7203 39.12C9.3003 38.148 9.0903 37.008 9.0903 35.7C9.0903 34.392 9.3003 33.258 9.7203 32.298C10.1523 31.326 10.7463 30.582 11.5023 30.066C12.2703 29.55 13.1403 29.292 14.1123 29.292C15.0843 29.292 15.9483 29.55 16.7043 30.066C17.4723 30.582 18.0723 31.326 18.5043 32.298C18.9363 33.258 19.1523 34.392 19.1523 35.7C19.1523 37.008 18.9363 38.148 18.5043 39.12C18.0723 40.08 17.4723 40.818 16.7043 41.334C15.9483 41.85 15.0843 42.108 14.1123 42.108ZM14.1123 40.92C14.8443 40.92 15.4863 40.716 16.0383 40.308C16.6023 39.9 17.0403 39.306 17.3523 38.526C17.6643 37.746 17.8203 36.804 17.8203 35.7C17.8203 34.596 17.6643 33.654 17.3523 32.874C17.0403 32.094 16.6023 31.5 16.0383 31.092C15.4863 30.684 14.8443 30.48 14.1123 30.48C13.3803 30.48 12.7323 30.684 12.1683 31.092C11.6163 31.5 11.1843 32.094 10.8723 32.874C10.5603 33.654 10.4043 34.596 10.4043 35.7C10.4043 36.804 10.5603 37.746 10.8723 38.526C11.1843 39.306 11.6163 39.9 12.1683 40.308C12.7323 40.716 13.3803 40.92 14.1123 40.92ZM24.9323 29.292C26.6003 29.292 27.8783 29.844 28.7663 30.948C29.6543 32.04 30.0983 33.588 30.0983 35.592C30.0983 36.996 29.8583 38.184 29.3783 39.156C28.8983 40.128 28.2263 40.866 27.3623 41.37C26.4983 41.862 25.4903 42.108 24.3383 42.108C23.0903 42.108 22.0943 41.88 21.3503 41.424L21.8723 40.38C22.4723 40.776 23.2883 40.974 24.3203 40.974C25.7123 40.974 26.8043 40.536 27.5963 39.66C28.3883 38.772 28.7843 37.488 28.7843 35.808C28.7843 35.496 28.7663 35.154 28.7303 34.782C28.4183 35.466 27.9203 36 27.2363 36.384C26.5523 36.756 25.7663 36.942 24.8783 36.942C24.0503 36.942 23.3123 36.786 22.6643 36.474C22.0283 36.162 21.5303 35.724 21.1703 35.16C20.8103 34.584 20.6303 33.918 20.6303 33.162C20.6303 32.394 20.8163 31.716 21.1883 31.128C21.5603 30.54 22.0703 30.09 22.7183 29.778C23.3783 29.454 24.1163 29.292 24.9323 29.292ZM25.0763 35.844C25.7123 35.844 26.2703 35.724 26.7503 35.484C27.2423 35.244 27.6263 34.914 27.9023 34.494C28.1783 34.074 28.3163 33.606 28.3163 33.09C28.3163 32.61 28.1843 32.166 27.9203 31.758C27.6683 31.35 27.2903 31.02 26.7863 30.768C26.2823 30.516 25.6823 30.39 24.9863 30.39C24.0743 30.39 23.3303 30.642 22.7543 31.146C22.1903 31.638 21.9083 32.298 21.9083 33.126C21.9083 33.954 22.1903 34.614 22.7543 35.106C23.3303 35.598 24.1043 35.844 25.0763 35.844ZM32.7557 42.09C32.4917 42.09 32.2637 41.994 32.0717 41.802C31.8917 41.61 31.8017 41.376 31.8017 41.1C31.8017 40.824 31.8917 40.596 32.0717 40.416C32.2637 40.224 32.4917 40.128 32.7557 40.128C33.0197 40.128 33.2477 40.224 33.4397 40.416C33.6317 40.596 33.7277 40.824 33.7277 41.1C33.7277 41.376 33.6317 41.61 33.4397 41.802C33.2477 41.994 33.0197 42.09 32.7557 42.09ZM40.4268 42.108C39.4548 42.108 38.5848 41.85 37.8168 41.334C37.0608 40.818 36.4668 40.08 36.0348 39.12C35.6148 38.148 35.4048 37.008 35.4048 35.7C35.4048 34.392 35.6148 33.258 36.0348 32.298C36.4668 31.326 37.0608 30.582 37.8168 30.066C38.5848 29.55 39.4548 29.292 40.4268 29.292C41.3988 29.292 42.2628 29.55 43.0188 30.066C43.7868 30.582 44.3868 31.326 44.8188 32.298C45.2508 33.258 45.4668 34.392 45.4668 35.7C45.4668 37.008 45.2508 38.148 44.8188 39.12C44.3868 40.08 43.7868 40.818 43.0188 41.334C42.2628 41.85 41.3988 42.108 40.4268 42.108ZM40.4268 40.92C41.1588 40.92 41.8008 40.716 42.3528 40.308C42.9168 39.9 43.3548 39.306 43.6668 38.526C43.9788 37.746 44.1348 36.804 44.1348 35.7C44.1348 34.596 43.9788 33.654 43.6668 32.874C43.3548 32.094 42.9168 31.5 42.3528 31.092C41.8008 30.684 41.1588 30.48 40.4268 30.48C39.6948 30.48 39.0468 30.684 38.4828 31.092C37.9308 31.5 37.4988 32.094 37.1868 32.874C36.8748 33.654 36.7188 34.596 36.7188 35.7C36.7188 36.804 36.8748 37.746 37.1868 38.526C37.4988 39.306 37.9308 39.9 38.4828 40.308C39.0468 40.716 39.6948 40.92 40.4268 40.92ZM56.0741 29.4V30.318L50.8001 42H49.3961L54.5801 30.552H48.1001V32.91H46.8221V29.4H56.0741Z" fill="white"/>
</svg>
