<svg width="64" height="64" viewBox="0 0 64 64" fill="none" xmlns="http://www.w3.org/2000/svg">
<circle cx="32" cy="32" r="32" fill="#0067FE"/>
<path d="M39.2082 26.7083C39.2082 24.664 38.396 22.7033 36.9505 21.2577C35.5049 19.8121 33.5442 19 31.4998 19C29.4555 19 27.4948 19.8121 26.0492 21.2577C24.6036 22.7033 23.7915 24.664 23.7915 26.7083C23.7915 27.1172 23.9539 27.5093 24.243 27.7985C24.5322 28.0876 24.9243 28.25 25.3332 28.25C25.742 28.25 26.1342 28.0876 26.4233 27.7985C26.7124 27.5093 26.8748 27.1172 26.8748 26.7083C26.8748 25.7936 27.1461 24.8994 27.6543 24.1388C28.1625 23.3782 28.8848 22.7854 29.7299 22.4354C30.575 22.0853 31.505 21.9937 32.4021 22.1722C33.2993 22.3507 34.1234 22.7911 34.7702 23.438C35.417 24.0848 35.8575 24.9089 36.036 25.806C36.2144 26.7032 36.1228 27.6331 35.7728 28.4782C35.4227 29.3234 34.8299 30.0457 34.0693 30.5539C33.3088 31.0621 32.4146 31.3333 31.4998 31.3333C31.091 31.3333 30.6988 31.4958 30.4097 31.7849C30.1206 32.074 29.9582 32.4661 29.9582 32.875V35.9583C29.9582 36.3672 30.1206 36.7593 30.4097 37.0485C30.6988 37.3376 31.091 37.5 31.4998 37.5C31.9087 37.5 32.3008 37.3376 32.59 37.0485C32.8791 36.7593 33.0415 36.3672 33.0415 35.9583V34.2625C34.7826 33.9071 36.3474 32.9611 37.4712 31.5845C38.5949 30.2079 39.2085 28.4853 39.2082 26.7083Z" fill="white"/>
<path d="M31.4997 43.6666C32.3511 43.6666 33.0413 42.9764 33.0413 42.1249C33.0413 41.2735 32.3511 40.5833 31.4997 40.5833C30.6482 40.5833 29.958 41.2735 29.958 42.1249C29.958 42.9764 30.6482 43.6666 31.4997 43.6666Z" fill="white"/>
</svg>
