<svg width="22" height="43" viewBox="0 0 22 43" fill="none" xmlns="http://www.w3.org/2000/svg">
<path d="M1.95693 42.3758C1.15723 42.3178 0.528342 41.8955 0.171194 41.0673C-0.17819 40.2475 0.0159124 39.3365 0.660331 38.6409C1.71625 37.5064 2.77993 36.3801 3.83584 35.2539C8.16044 30.6413 12.4928 26.0203 16.8174 21.4077C17.027 21.1841 17.0193 21.1841 16.8096 20.9605C11.4524 15.2464 6.08743 9.5324 0.730208 3.81007C0.419645 3.47882 0.16343 3.11444 0.0624969 2.65069C-0.185954 1.49132 0.419645 0.3982 1.49885 0.0835129C2.28302 -0.148362 2.93521 0.116638 3.48646 0.704605C4.69765 1.9882 5.90109 3.27179 7.10452 4.55538C11.7863 9.54896 16.4602 14.5425 21.142 19.5278C21.6311 20.0496 21.9029 20.6458 21.8407 21.3911C21.7942 21.9542 21.538 22.418 21.1653 22.8155C17.0037 27.2708 12.8267 31.7178 8.64957 36.1731C6.94924 37.9867 5.2489 39.792 3.55633 41.6056C3.22248 41.97 2.82651 42.2184 2.36843 42.3426C2.25973 42.3758 2.12774 42.3675 1.95693 42.3758Z" fill="#82B5D2"/>
</svg>
