<svg width="64" height="64" viewBox="0 0 64 64" fill="none" xmlns="http://www.w3.org/2000/svg">
<circle cx="32" cy="32" r="32" fill="#0067FE"/>
<path d="M50.6696 31.0156H45.6234C44.909 25.2969 40.1147 20.7617 34.0692 20.0859V15.3125C34.0692 15.1406 33.9205 15 33.7388 15H31.2612C31.0795 15 30.9308 15.1406 30.9308 15.3125V20.0859C24.8853 20.7617 20.091 25.2969 19.3766 31.0156H14.3304C14.1487 31.0156 14 31.1562 14 31.3281V33.6719C14 33.8438 14.1487 33.9844 14.3304 33.9844H19.3766C20.091 39.7031 24.8853 44.2383 30.9308 44.9141V49.6875C30.9308 49.8594 31.0795 50 31.2612 50H33.7388C33.9205 50 34.0692 49.8594 34.0692 49.6875V44.9141C40.1147 44.2383 44.909 39.7031 45.6234 33.9844H50.6696C50.8513 33.9844 51 33.8438 51 33.6719V31.3281C51 31.1562 50.8513 31.0156 50.6696 31.0156ZM32.5 42.0312C26.9335 42.0312 22.4241 37.7656 22.4241 32.5C22.4241 27.2344 26.9335 22.9688 32.5 22.9688C38.0665 22.9688 42.5759 27.2344 42.5759 32.5C42.5759 37.7656 38.0665 42.0312 32.5 42.0312Z" fill="white"/>
<path d="M32.5 28C31.2963 28 30.1713 28.465 29.32 29.32C28.4688 30.1713 28 31.2963 28 32.5C28 33.7038 28.4688 34.8287 29.32 35.68C30.1713 36.5275 31.3 37 32.5 37C33.7 37 34.8287 36.5312 35.68 35.68C36.5275 34.8287 37 33.7 37 32.5C37 31.3 36.5312 30.1713 35.68 29.32C34.8287 28.465 33.7038 28 32.5 28Z" fill="white"/>
</svg>
