<svg width="64" height="64" viewBox="0 0 64 64" fill="none" xmlns="http://www.w3.org/2000/svg">
<circle cx="32" cy="32" r="32" fill="#0067FE"/>
<path d="M23.672 25.2V28.368H19.136V42H15.824V28.368H11.312V25.2H23.672ZM28.8329 38.832H35.9129V42H25.5209V25.2H35.7929V28.368H28.8329V31.944H35.1929V35.064H28.8329V38.832ZM44.9195 25.2C47.2235 25.2 49.1435 26.008 50.6795 27.624C52.2315 29.24 53.0075 31.232 53.0075 33.6C53.0075 35.968 52.2315 37.96 50.6795 39.576C49.1435 41.192 47.2235 42 44.9195 42H38.2475V25.2H44.9195ZM44.9195 38.832C46.3755 38.832 47.5595 38.352 48.4715 37.392C49.3835 36.416 49.8395 35.152 49.8395 33.6C49.8395 32.048 49.3835 30.792 48.4715 29.832C47.5595 28.856 46.3755 28.368 44.9195 28.368H41.5595V38.832H44.9195Z" fill="#F2F2F2"/>
</svg>
