<svg width="1525" height="679" viewBox="0 0 1525 679" fill="none" xmlns="http://www.w3.org/2000/svg">
<g clip-path="url(#clip0)">
<path d="M1184.11 674.453V677.887H1187.54V674.453H1184.11Z" fill="#82B5D2" stroke="#82B5D2" stroke-width="3" stroke-miterlimit="10"/>
<path d="M1184.11 590.286V593.72H1187.54V590.286H1184.11Z" fill="#82B5D2" stroke="#82B5D2" stroke-width="3" stroke-miterlimit="10"/>
<path d="M1184.11 506.118V509.552H1187.54V506.118H1184.11Z" fill="#82B5D2" stroke="#82B5D2" stroke-width="3" stroke-miterlimit="10"/>
<path d="M1184.11 421.95V425.384H1187.54V421.95H1184.11Z" fill="#82B5D2" stroke="#82B5D2" stroke-width="3" stroke-miterlimit="10"/>
<path d="M1184.11 337.783V341.216H1187.54V337.783H1184.11Z" fill="#82B5D2" stroke="#82B5D2" stroke-width="3" stroke-miterlimit="10"/>
<path d="M1184.11 253.615V257.049H1187.54V253.615H1184.11Z" fill="#82B5D2" stroke="#82B5D2" stroke-width="3" stroke-miterlimit="10"/>
<path d="M1184.11 169.447V172.881H1187.54V169.447H1184.11Z" fill="#82B5D2" stroke="#82B5D2" stroke-width="3" stroke-miterlimit="10"/>
<path d="M1184.11 85.2796V88.7134H1187.54V85.2796H1184.11Z" fill="#82B5D2" stroke="#82B5D2" stroke-width="3" stroke-miterlimit="10"/>
<path d="M1184.11 1.1116V4.54541H1187.54V1.1116H1184.11Z" fill="#82B5D2" stroke="#82B5D2" stroke-width="3" stroke-miterlimit="10"/>
<path d="M1268.19 674.456V677.89H1271.62V674.456H1268.19Z" fill="#82B5D2" stroke="#82B5D2" stroke-width="3" stroke-miterlimit="10"/>
<path d="M1268.2 590.288V593.722H1271.63V590.288H1268.2Z" fill="#82B5D2" stroke="#82B5D2" stroke-width="3" stroke-miterlimit="10"/>
<path d="M1268.2 506.12V509.554H1271.63V506.12H1268.2Z" fill="#82B5D2" stroke="#82B5D2" stroke-width="3" stroke-miterlimit="10"/>
<path d="M1268.2 421.953V425.387H1271.63V421.953H1268.2Z" fill="#82B5D2" stroke="#82B5D2" stroke-width="3" stroke-miterlimit="10"/>
<path d="M1268.2 337.785V341.219H1271.63V337.785H1268.2Z" fill="#82B5D2" stroke="#82B5D2" stroke-width="3" stroke-miterlimit="10"/>
<path d="M1268.2 253.617V257.051H1271.63V253.617H1268.2Z" fill="#82B5D2" stroke="#82B5D2" stroke-width="3" stroke-miterlimit="10"/>
<path d="M1268.2 169.449V172.883H1271.63V169.449H1268.2Z" fill="#82B5D2" stroke="#82B5D2" stroke-width="3" stroke-miterlimit="10"/>
<path d="M1268.19 85.282V88.7158H1271.63V85.282H1268.19Z" fill="#82B5D2" stroke="#82B5D2" stroke-width="3" stroke-miterlimit="10"/>
<path d="M1268.2 1.11404V4.54785H1271.63V1.11404H1268.2Z" fill="#82B5D2" stroke="#82B5D2" stroke-width="3" stroke-miterlimit="10"/>
<path d="M1352.28 674.45V677.884H1355.71V674.45H1352.28Z" fill="#82B5D2" stroke="#82B5D2" stroke-width="3" stroke-miterlimit="10"/>
<path d="M1352.28 590.283V593.717H1355.72V590.283H1352.28Z" fill="#82B5D2" stroke="#82B5D2" stroke-width="3" stroke-miterlimit="10"/>
<path d="M1352.29 506.115V509.549H1355.72V506.115H1352.29Z" fill="#82B5D2" stroke="#82B5D2" stroke-width="3" stroke-miterlimit="10"/>
<path d="M1352.29 421.948V425.381H1355.72V421.948H1352.29Z" fill="#82B5D2" stroke="#82B5D2" stroke-width="3" stroke-miterlimit="10"/>
<path d="M1352.28 337.78V341.213H1355.71V337.78H1352.28Z" fill="#82B5D2" stroke="#82B5D2" stroke-width="3" stroke-miterlimit="10"/>
<path d="M1352.29 253.612V257.046H1355.72V253.612H1352.29Z" fill="#82B5D2" stroke="#82B5D2" stroke-width="3" stroke-miterlimit="10"/>
<path d="M1352.29 169.444V172.878H1355.72V169.444H1352.29Z" fill="#82B5D2" stroke="#82B5D2" stroke-width="3" stroke-miterlimit="10"/>
<path d="M1352.28 85.2766V88.7104H1355.71V85.2766H1352.28Z" fill="#82B5D2" stroke="#82B5D2" stroke-width="3" stroke-miterlimit="10"/>
<path d="M1352.29 1.10915V4.54297H1355.72V1.10915H1352.29Z" fill="#82B5D2" stroke="#82B5D2" stroke-width="3" stroke-miterlimit="10"/>
<path d="M1436.37 674.453V677.887H1439.8V674.453H1436.37Z" fill="#82B5D2" stroke="#82B5D2" stroke-width="3" stroke-miterlimit="10"/>
<path d="M1436.37 590.285V593.719H1439.8V590.285H1436.37Z" fill="#82B5D2" stroke="#82B5D2" stroke-width="3" stroke-miterlimit="10"/>
<path d="M1436.38 506.117V509.551H1439.81V506.117H1436.38Z" fill="#82B5D2" stroke="#82B5D2" stroke-width="3" stroke-miterlimit="10"/>
<path d="M1436.38 421.95V425.384H1439.81V421.95H1436.38Z" fill="#82B5D2" stroke="#82B5D2" stroke-width="3" stroke-miterlimit="10"/>
<path d="M1436.37 337.782V341.216H1439.8V337.782H1436.37Z" fill="#82B5D2" stroke="#82B5D2" stroke-width="3" stroke-miterlimit="10"/>
<path d="M1436.37 253.615V257.048H1439.81V253.615H1436.37Z" fill="#82B5D2" stroke="#82B5D2" stroke-width="3" stroke-miterlimit="10"/>
<path d="M1436.38 169.447V172.88H1439.81V169.447H1436.38Z" fill="#82B5D2" stroke="#82B5D2" stroke-width="3" stroke-miterlimit="10"/>
<path d="M1436.37 85.2786V88.7124H1439.8V85.2786H1436.37Z" fill="#82B5D2" stroke="#82B5D2" stroke-width="3" stroke-miterlimit="10"/>
<path d="M1436.37 1.11112V4.54492H1439.8V1.11112H1436.37Z" fill="#82B5D2" stroke="#82B5D2" stroke-width="3" stroke-miterlimit="10"/>
<path d="M1520.46 674.455V677.889H1523.89V674.455H1520.46Z" fill="#82B5D2" stroke="#82B5D2" stroke-width="3" stroke-miterlimit="10"/>
<path d="M1520.46 590.287V593.721H1523.89V590.287H1520.46Z" fill="#82B5D2" stroke="#82B5D2" stroke-width="3" stroke-miterlimit="10"/>
<path d="M1520.46 506.12V509.553H1523.89V506.12H1520.46Z" fill="#82B5D2" stroke="#82B5D2" stroke-width="3" stroke-miterlimit="10"/>
<path d="M1520.47 421.952V425.386H1523.9V421.952H1520.47Z" fill="#82B5D2" stroke="#82B5D2" stroke-width="3" stroke-miterlimit="10"/>
<path d="M1520.46 337.784V341.218H1523.89V337.784H1520.46Z" fill="#82B5D2" stroke="#82B5D2" stroke-width="3" stroke-miterlimit="10"/>
<path d="M1520.46 253.616V257.05H1523.89V253.616H1520.46Z" fill="#82B5D2" stroke="#82B5D2" stroke-width="3" stroke-miterlimit="10"/>
<path d="M1520.46 169.449V172.883H1523.9V169.449H1520.46Z" fill="#82B5D2" stroke="#82B5D2" stroke-width="3" stroke-miterlimit="10"/>
<path d="M1520.46 85.281V88.7148H1523.89V85.281H1520.46Z" fill="#82B5D2" stroke="#82B5D2" stroke-width="3" stroke-miterlimit="10"/>
<path d="M1520.46 1.11354V4.54736H1523.89V1.11354H1520.46Z" fill="#82B5D2" stroke="#82B5D2" stroke-width="3" stroke-miterlimit="10"/>
</g>
<g opacity="0.1" clip-path="url(#clip1)">
<path d="M352.061 339.909C516.662 278.254 628.133 169.91 601.039 97.9163C573.945 25.9221 418.545 17.5403 253.944 79.195C89.3432 140.85 -22.1281 249.193 4.96618 321.187C32.0604 393.182 187.46 401.563 352.061 339.909Z" stroke="#82B5D2" stroke-width="3" stroke-miterlimit="10"/>
<path d="M344.61 316.058C469.934 269.116 554.181 184.961 532.779 128.095C511.378 71.228 392.434 63.1832 267.109 110.126C141.785 157.069 57.5381 241.223 78.9392 298.09C100.34 354.956 219.285 363.001 344.61 316.058Z" stroke="#82B5D2" stroke-width="3" stroke-miterlimit="10"/>
<path d="M324.795 276.312C406.041 245.879 460.656 191.322 446.782 154.455C432.907 117.588 355.797 112.372 274.551 142.804C193.304 173.236 138.689 227.793 152.563 264.66C166.438 301.528 243.549 306.744 324.795 276.312Z" stroke="#82B5D2" stroke-width="3" stroke-miterlimit="10"/>
<path d="M416.628 93.2045C423.053 93.2045 428.262 88.0083 428.262 81.5986C428.262 75.1888 423.053 69.9927 416.628 69.9927C410.203 69.9927 404.995 75.1888 404.995 81.5986C404.995 88.0083 410.203 93.2045 416.628 93.2045Z" fill="#82B5D2"/>
<path d="M258.363 86.3163C264.788 86.3163 269.997 81.1201 269.997 74.7104C269.997 68.3006 264.788 63.1045 258.363 63.1045C251.938 63.1045 246.73 68.3006 246.73 74.7104C246.73 81.1201 251.938 86.3163 258.363 86.3163Z" fill="#82B5D2"/>
<path d="M182.479 395C188.904 395 194.113 389.804 194.113 383.394C194.113 376.985 188.904 371.789 182.479 371.789C176.055 371.789 170.846 376.985 170.846 383.394C170.846 389.804 176.055 395 182.479 395Z" fill="#82B5D2"/>
</g>
<defs>
<clipPath id="clip0">
<rect width="342" height="679" fill="white" transform="translate(1183)"/>
</clipPath>
<clipPath id="clip1">
<rect width="606" height="358" fill="white" transform="translate(0 37)"/>
</clipPath>
</defs>
</svg>
