<svg width="342" height="679" viewBox="0 0 342 679" fill="none" xmlns="http://www.w3.org/2000/svg">
<g clip-path="url(#clip0)">
<path d="M1.10596 674.453L1.10596 677.887H4.53654V674.453H1.10596Z" fill="#82B5D2" stroke="#82B5D2" stroke-width="3" stroke-miterlimit="10"/>
<path d="M1.1084 590.286L1.1084 593.72H4.53898V590.286H1.1084Z" fill="#82B5D2" stroke="#82B5D2" stroke-width="3" stroke-miterlimit="10"/>
<path d="M1.11035 506.118L1.11035 509.552H4.54089V506.118H1.11035Z" fill="#82B5D2" stroke="#82B5D2" stroke-width="3" stroke-miterlimit="10"/>
<path d="M1.11279 421.95L1.11279 425.384H4.54338V421.95H1.11279Z" fill="#82B5D2" stroke="#82B5D2" stroke-width="3" stroke-miterlimit="10"/>
<path d="M1.10742 337.783L1.10742 341.216H4.53801V337.783H1.10742Z" fill="#82B5D2" stroke="#82B5D2" stroke-width="3" stroke-miterlimit="10"/>
<path d="M1.10986 253.615L1.10986 257.049H4.54042V253.615H1.10986Z" fill="#82B5D2" stroke="#82B5D2" stroke-width="3" stroke-miterlimit="10"/>
<path d="M1.11182 169.447L1.11182 172.881H4.54239V169.447H1.11182Z" fill="#82B5D2" stroke="#82B5D2" stroke-width="3" stroke-miterlimit="10"/>
<path d="M1.10693 85.2796L1.10693 88.7134H4.53751V85.2796H1.10693Z" fill="#82B5D2" stroke="#82B5D2" stroke-width="3" stroke-miterlimit="10"/>
<path d="M1.10889 1.1116L1.10889 4.54541H4.53946V1.1116H1.10889Z" fill="#82B5D2" stroke="#82B5D2" stroke-width="3" stroke-miterlimit="10"/>
<path d="M85.1943 674.456V677.89H88.6249V674.456H85.1943Z" fill="#82B5D2" stroke="#82B5D2" stroke-width="3" stroke-miterlimit="10"/>
<path d="M85.1963 590.288V593.722H88.6269V590.288H85.1963Z" fill="#82B5D2" stroke="#82B5D2" stroke-width="3" stroke-miterlimit="10"/>
<path d="M85.1987 506.12V509.554H88.6293V506.12H85.1987Z" fill="#82B5D2" stroke="#82B5D2" stroke-width="3" stroke-miterlimit="10"/>
<path d="M85.2007 421.953V425.387H88.6313V421.953H85.2007Z" fill="#82B5D2" stroke="#82B5D2" stroke-width="3" stroke-miterlimit="10"/>
<path d="M85.1958 337.785V341.219H88.6264V337.785H85.1958Z" fill="#82B5D2" stroke="#82B5D2" stroke-width="3" stroke-miterlimit="10"/>
<path d="M85.1978 253.617V257.051H88.6283V253.617H85.1978Z" fill="#82B5D2" stroke="#82B5D2" stroke-width="3" stroke-miterlimit="10"/>
<path d="M85.2002 169.449V172.883H88.6308V169.449H85.2002Z" fill="#82B5D2" stroke="#82B5D2" stroke-width="3" stroke-miterlimit="10"/>
<path d="M85.1948 85.282V88.7158H88.6254V85.282H85.1948Z" fill="#82B5D2" stroke="#82B5D2" stroke-width="3" stroke-miterlimit="10"/>
<path d="M85.1973 1.11404V4.54785H88.6278V1.11404H85.1973Z" fill="#82B5D2" stroke="#82B5D2" stroke-width="3" stroke-miterlimit="10"/>
<path d="M169.282 674.45V677.884H172.713V674.45H169.282Z" fill="#82B5D2" stroke="#82B5D2" stroke-width="3" stroke-miterlimit="10"/>
<path d="M169.285 590.283V593.717H172.715V590.283H169.285Z" fill="#82B5D2" stroke="#82B5D2" stroke-width="3" stroke-miterlimit="10"/>
<path d="M169.287 506.115V509.549H172.717V506.115H169.287Z" fill="#82B5D2" stroke="#82B5D2" stroke-width="3" stroke-miterlimit="10"/>
<path d="M169.289 421.948V425.381H172.72V421.948H169.289Z" fill="#82B5D2" stroke="#82B5D2" stroke-width="3" stroke-miterlimit="10"/>
<path d="M169.284 337.78V341.213H172.715V337.78H169.284Z" fill="#82B5D2" stroke="#82B5D2" stroke-width="3" stroke-miterlimit="10"/>
<path d="M169.286 253.612V257.046H172.717V253.612H169.286Z" fill="#82B5D2" stroke="#82B5D2" stroke-width="3" stroke-miterlimit="10"/>
<path d="M169.288 169.444V172.878H172.719V169.444H169.288Z" fill="#82B5D2" stroke="#82B5D2" stroke-width="3" stroke-miterlimit="10"/>
<path d="M169.283 85.2766V88.7104H172.714V85.2766H169.283Z" fill="#82B5D2" stroke="#82B5D2" stroke-width="3" stroke-miterlimit="10"/>
<path d="M169.285 1.10915V4.54297H172.716V1.10915H169.285Z" fill="#82B5D2" stroke="#82B5D2" stroke-width="3" stroke-miterlimit="10"/>
<path d="M253.371 674.453V677.887H256.801V674.453H253.371Z" fill="#82B5D2" stroke="#82B5D2" stroke-width="3" stroke-miterlimit="10"/>
<path d="M253.373 590.285V593.719H256.803V590.285H253.373Z" fill="#82B5D2" stroke="#82B5D2" stroke-width="3" stroke-miterlimit="10"/>
<path d="M253.375 506.117V509.551H256.806V506.117H253.375Z" fill="#82B5D2" stroke="#82B5D2" stroke-width="3" stroke-miterlimit="10"/>
<path d="M253.377 421.95V425.384H256.808V421.95H253.377Z" fill="#82B5D2" stroke="#82B5D2" stroke-width="3" stroke-miterlimit="10"/>
<path d="M253.372 337.782V341.216H256.803V337.782H253.372Z" fill="#82B5D2" stroke="#82B5D2" stroke-width="3" stroke-miterlimit="10"/>
<path d="M253.375 253.615V257.048H256.805V253.615H253.375Z" fill="#82B5D2" stroke="#82B5D2" stroke-width="3" stroke-miterlimit="10"/>
<path d="M253.376 169.447V172.88H256.807V169.447H253.376Z" fill="#82B5D2" stroke="#82B5D2" stroke-width="3" stroke-miterlimit="10"/>
<path d="M253.371 85.2786V88.7124H256.802V85.2786H253.371Z" fill="#82B5D2" stroke="#82B5D2" stroke-width="3" stroke-miterlimit="10"/>
<path d="M253.374 1.11112V4.54492H256.804V1.11112H253.374Z" fill="#82B5D2" stroke="#82B5D2" stroke-width="3" stroke-miterlimit="10"/>
<path d="M337.459 674.455V677.889H340.889V674.455H337.459Z" fill="#82B5D2" stroke="#82B5D2" stroke-width="3" stroke-miterlimit="10"/>
<path d="M337.461 590.287V593.721H340.892V590.287H337.461Z" fill="#82B5D2" stroke="#82B5D2" stroke-width="3" stroke-miterlimit="10"/>
<path d="M337.463 506.12V509.553H340.894V506.12H337.463Z" fill="#82B5D2" stroke="#82B5D2" stroke-width="3" stroke-miterlimit="10"/>
<path d="M337.466 421.952V425.386H340.896V421.952H337.466Z" fill="#82B5D2" stroke="#82B5D2" stroke-width="3" stroke-miterlimit="10"/>
<path d="M337.46 337.784V341.218H340.891V337.784H337.46Z" fill="#82B5D2" stroke="#82B5D2" stroke-width="3" stroke-miterlimit="10"/>
<path d="M337.463 253.616V257.05H340.893V253.616H337.463Z" fill="#82B5D2" stroke="#82B5D2" stroke-width="3" stroke-miterlimit="10"/>
<path d="M337.465 169.449V172.883H340.895V169.449H337.465Z" fill="#82B5D2" stroke="#82B5D2" stroke-width="3" stroke-miterlimit="10"/>
<path d="M337.46 85.281V88.7148H340.89V85.281H337.46Z" fill="#82B5D2" stroke="#82B5D2" stroke-width="3" stroke-miterlimit="10"/>
<path d="M337.462 1.11354V4.54736H340.893V1.11354H337.462Z" fill="#82B5D2" stroke="#82B5D2" stroke-width="3" stroke-miterlimit="10"/>
</g>
<defs>
<clipPath id="clip0">
<rect width="342" height="679" fill="white"/>
</clipPath>
</defs>
</svg>
