<svg width="486" height="358" viewBox="0 0 486 358" fill="none" xmlns="http://www.w3.org/2000/svg">
<g opacity="0.1" clip-path="url(#clip0)">
<path d="M232.061 302.909C396.662 241.254 508.133 132.91 481.039 60.9163C453.945 -11.0779 298.545 -19.4597 133.944 42.195C-30.6568 103.85 -142.128 212.193 -115.034 284.187C-87.9396 356.182 67.4601 364.563 232.061 302.909Z" stroke="#82B5D2" stroke-width="3" stroke-miterlimit="10"/>
<path d="M224.61 279.058C349.934 232.116 434.181 147.961 412.779 91.0947C391.378 34.228 272.434 26.1832 147.109 73.126C21.7846 120.069 -62.4619 204.223 -41.0608 261.09C-19.6596 317.956 99.2851 326.001 224.61 279.058Z" stroke="#82B5D2" stroke-width="3" stroke-miterlimit="10"/>
<path d="M204.795 239.312C286.041 208.879 340.656 154.322 326.782 117.455C312.907 80.588 235.797 75.3716 154.551 105.804C73.3044 136.236 18.6889 190.793 32.5635 227.66C46.438 264.528 123.549 269.744 204.795 239.312Z" stroke="#82B5D2" stroke-width="3" stroke-miterlimit="10"/>
<path d="M296.628 56.2045C303.053 56.2045 308.262 51.0083 308.262 44.5986C308.262 38.1888 303.053 32.9927 296.628 32.9927C290.203 32.9927 284.995 38.1888 284.995 44.5986C284.995 51.0083 290.203 56.2045 296.628 56.2045Z" fill="#82B5D2"/>
<path d="M138.363 49.3163C144.788 49.3163 149.997 44.1201 149.997 37.7104C149.997 31.3006 144.788 26.1045 138.363 26.1045C131.938 26.1045 126.73 31.3006 126.73 37.7104C126.73 44.1201 131.938 49.3163 138.363 49.3163Z" fill="#82B5D2"/>
<path d="M62.4795 358C68.9043 358 74.1127 352.804 74.1127 346.394C74.1127 339.985 68.9043 334.789 62.4795 334.789C56.0546 334.789 50.8462 339.985 50.8462 346.394C50.8462 352.804 56.0546 358 62.4795 358Z" fill="#82B5D2"/>
</g>
<defs>
<clipPath id="clip0">
<rect width="606" height="358" fill="white" transform="translate(-120)"/>
</clipPath>
</defs>
</svg>
