<svg width="1613" height="679" viewBox="0 0 1613 679" fill="none" xmlns="http://www.w3.org/2000/svg">
<g clip-path="url(#clip0)">
<path d="M1272.11 674.453V677.887H1275.54V674.453H1272.11Z" fill="#82B5D2" stroke="#82B5D2" stroke-width="3" stroke-miterlimit="10"/>
<path d="M1272.11 590.286V593.72H1275.54V590.286H1272.11Z" fill="#82B5D2" stroke="#82B5D2" stroke-width="3" stroke-miterlimit="10"/>
<path d="M1272.11 506.118V509.552H1275.54V506.118H1272.11Z" fill="#82B5D2" stroke="#82B5D2" stroke-width="3" stroke-miterlimit="10"/>
<path d="M1272.11 421.95V425.384H1275.54V421.95H1272.11Z" fill="#82B5D2" stroke="#82B5D2" stroke-width="3" stroke-miterlimit="10"/>
<path d="M1272.11 337.783V341.216H1275.54V337.783H1272.11Z" fill="#82B5D2" stroke="#82B5D2" stroke-width="3" stroke-miterlimit="10"/>
<path d="M1272.11 253.615V257.049H1275.54V253.615H1272.11Z" fill="#82B5D2" stroke="#82B5D2" stroke-width="3" stroke-miterlimit="10"/>
<path d="M1272.11 169.447V172.881H1275.54V169.447H1272.11Z" fill="#82B5D2" stroke="#82B5D2" stroke-width="3" stroke-miterlimit="10"/>
<path d="M1272.11 85.2796V88.7134H1275.54V85.2796H1272.11Z" fill="#82B5D2" stroke="#82B5D2" stroke-width="3" stroke-miterlimit="10"/>
<path d="M1272.11 1.1116V4.54541H1275.54V1.1116H1272.11Z" fill="#82B5D2" stroke="#82B5D2" stroke-width="3" stroke-miterlimit="10"/>
<path d="M1356.19 674.456V677.89H1359.62V674.456H1356.19Z" fill="#82B5D2" stroke="#82B5D2" stroke-width="3" stroke-miterlimit="10"/>
<path d="M1356.2 590.288V593.722H1359.63V590.288H1356.2Z" fill="#82B5D2" stroke="#82B5D2" stroke-width="3" stroke-miterlimit="10"/>
<path d="M1356.2 506.12V509.554H1359.63V506.12H1356.2Z" fill="#82B5D2" stroke="#82B5D2" stroke-width="3" stroke-miterlimit="10"/>
<path d="M1356.2 421.953V425.387H1359.63V421.953H1356.2Z" fill="#82B5D2" stroke="#82B5D2" stroke-width="3" stroke-miterlimit="10"/>
<path d="M1356.2 337.785V341.219H1359.63V337.785H1356.2Z" fill="#82B5D2" stroke="#82B5D2" stroke-width="3" stroke-miterlimit="10"/>
<path d="M1356.2 253.617V257.051H1359.63V253.617H1356.2Z" fill="#82B5D2" stroke="#82B5D2" stroke-width="3" stroke-miterlimit="10"/>
<path d="M1356.2 169.449V172.883H1359.63V169.449H1356.2Z" fill="#82B5D2" stroke="#82B5D2" stroke-width="3" stroke-miterlimit="10"/>
<path d="M1356.19 85.282V88.7158H1359.63V85.282H1356.19Z" fill="#82B5D2" stroke="#82B5D2" stroke-width="3" stroke-miterlimit="10"/>
<path d="M1356.2 1.11404V4.54785H1359.63V1.11404H1356.2Z" fill="#82B5D2" stroke="#82B5D2" stroke-width="3" stroke-miterlimit="10"/>
<path d="M1440.28 674.45V677.884H1443.71V674.45H1440.28Z" fill="#82B5D2" stroke="#82B5D2" stroke-width="3" stroke-miterlimit="10"/>
<path d="M1440.28 590.283V593.717H1443.72V590.283H1440.28Z" fill="#82B5D2" stroke="#82B5D2" stroke-width="3" stroke-miterlimit="10"/>
<path d="M1440.29 506.115V509.549H1443.72V506.115H1440.29Z" fill="#82B5D2" stroke="#82B5D2" stroke-width="3" stroke-miterlimit="10"/>
<path d="M1440.29 421.948V425.381H1443.72V421.948H1440.29Z" fill="#82B5D2" stroke="#82B5D2" stroke-width="3" stroke-miterlimit="10"/>
<path d="M1440.28 337.78V341.213H1443.71V337.78H1440.28Z" fill="#82B5D2" stroke="#82B5D2" stroke-width="3" stroke-miterlimit="10"/>
<path d="M1440.29 253.612V257.046H1443.72V253.612H1440.29Z" fill="#82B5D2" stroke="#82B5D2" stroke-width="3" stroke-miterlimit="10"/>
<path d="M1440.29 169.444V172.878H1443.72V169.444H1440.29Z" fill="#82B5D2" stroke="#82B5D2" stroke-width="3" stroke-miterlimit="10"/>
<path d="M1440.28 85.2766V88.7104H1443.71V85.2766H1440.28Z" fill="#82B5D2" stroke="#82B5D2" stroke-width="3" stroke-miterlimit="10"/>
<path d="M1440.29 1.10915V4.54297H1443.72V1.10915H1440.29Z" fill="#82B5D2" stroke="#82B5D2" stroke-width="3" stroke-miterlimit="10"/>
<path d="M1524.37 674.453V677.887H1527.8V674.453H1524.37Z" fill="#82B5D2" stroke="#82B5D2" stroke-width="3" stroke-miterlimit="10"/>
<path d="M1524.37 590.285V593.719H1527.8V590.285H1524.37Z" fill="#82B5D2" stroke="#82B5D2" stroke-width="3" stroke-miterlimit="10"/>
<path d="M1524.38 506.117V509.551H1527.81V506.117H1524.38Z" fill="#82B5D2" stroke="#82B5D2" stroke-width="3" stroke-miterlimit="10"/>
<path d="M1524.38 421.95V425.384H1527.81V421.95H1524.38Z" fill="#82B5D2" stroke="#82B5D2" stroke-width="3" stroke-miterlimit="10"/>
<path d="M1524.37 337.782V341.216H1527.8V337.782H1524.37Z" fill="#82B5D2" stroke="#82B5D2" stroke-width="3" stroke-miterlimit="10"/>
<path d="M1524.37 253.615V257.048H1527.81V253.615H1524.37Z" fill="#82B5D2" stroke="#82B5D2" stroke-width="3" stroke-miterlimit="10"/>
<path d="M1524.38 169.447V172.88H1527.81V169.447H1524.38Z" fill="#82B5D2" stroke="#82B5D2" stroke-width="3" stroke-miterlimit="10"/>
<path d="M1524.37 85.2786V88.7124H1527.8V85.2786H1524.37Z" fill="#82B5D2" stroke="#82B5D2" stroke-width="3" stroke-miterlimit="10"/>
<path d="M1524.37 1.11112V4.54492H1527.8V1.11112H1524.37Z" fill="#82B5D2" stroke="#82B5D2" stroke-width="3" stroke-miterlimit="10"/>
<path d="M1608.46 674.455V677.889H1611.89V674.455H1608.46Z" fill="#82B5D2" stroke="#82B5D2" stroke-width="3" stroke-miterlimit="10"/>
<path d="M1608.46 590.287V593.721H1611.89V590.287H1608.46Z" fill="#82B5D2" stroke="#82B5D2" stroke-width="3" stroke-miterlimit="10"/>
<path d="M1608.46 506.12V509.553H1611.89V506.12H1608.46Z" fill="#82B5D2" stroke="#82B5D2" stroke-width="3" stroke-miterlimit="10"/>
<path d="M1608.47 421.952V425.386H1611.9V421.952H1608.47Z" fill="#82B5D2" stroke="#82B5D2" stroke-width="3" stroke-miterlimit="10"/>
<path d="M1608.46 337.784V341.218H1611.89V337.784H1608.46Z" fill="#82B5D2" stroke="#82B5D2" stroke-width="3" stroke-miterlimit="10"/>
<path d="M1608.46 253.616V257.05H1611.89V253.616H1608.46Z" fill="#82B5D2" stroke="#82B5D2" stroke-width="3" stroke-miterlimit="10"/>
<path d="M1608.46 169.449V172.883H1611.9V169.449H1608.46Z" fill="#82B5D2" stroke="#82B5D2" stroke-width="3" stroke-miterlimit="10"/>
<path d="M1608.46 85.281V88.7148H1611.89V85.281H1608.46Z" fill="#82B5D2" stroke="#82B5D2" stroke-width="3" stroke-miterlimit="10"/>
<path d="M1608.46 1.11354V4.54736H1611.89V1.11354H1608.46Z" fill="#82B5D2" stroke="#82B5D2" stroke-width="3" stroke-miterlimit="10"/>
</g>
<g opacity="0.1" clip-path="url(#clip1)">
<path d="M352.061 339.909C516.662 278.254 628.133 169.91 601.039 97.9163C573.945 25.9221 418.545 17.5403 253.944 79.195C89.3432 140.85 -22.1281 249.193 4.96618 321.187C32.0604 393.182 187.46 401.563 352.061 339.909Z" stroke="#82B5D2" stroke-width="3" stroke-miterlimit="10"/>
<path d="M344.61 316.058C469.934 269.116 554.181 184.961 532.779 128.095C511.378 71.228 392.434 63.1832 267.109 110.126C141.785 157.069 57.5381 241.223 78.9392 298.09C100.34 354.956 219.285 363.001 344.61 316.058Z" stroke="#82B5D2" stroke-width="3" stroke-miterlimit="10"/>
<path d="M324.795 276.312C406.041 245.879 460.656 191.322 446.782 154.455C432.907 117.588 355.797 112.372 274.551 142.804C193.304 173.236 138.689 227.793 152.563 264.66C166.438 301.528 243.549 306.744 324.795 276.312Z" stroke="#82B5D2" stroke-width="3" stroke-miterlimit="10"/>
<path d="M416.628 93.2045C423.053 93.2045 428.262 88.0083 428.262 81.5986C428.262 75.1888 423.053 69.9927 416.628 69.9927C410.203 69.9927 404.995 75.1888 404.995 81.5986C404.995 88.0083 410.203 93.2045 416.628 93.2045Z" fill="#82B5D2"/>
<path d="M258.363 86.3163C264.788 86.3163 269.997 81.1201 269.997 74.7104C269.997 68.3006 264.788 63.1045 258.363 63.1045C251.938 63.1045 246.73 68.3006 246.73 74.7104C246.73 81.1201 251.938 86.3163 258.363 86.3163Z" fill="#82B5D2"/>
<path d="M182.479 395C188.904 395 194.113 389.804 194.113 383.394C194.113 376.985 188.904 371.789 182.479 371.789C176.055 371.789 170.846 376.985 170.846 383.394C170.846 389.804 176.055 395 182.479 395Z" fill="#82B5D2"/>
</g>
<defs>
<clipPath id="clip0">
<rect width="342" height="679" fill="white" transform="translate(1271)"/>
</clipPath>
<clipPath id="clip1">
<rect width="606" height="358" fill="white" transform="translate(0 37)"/>
</clipPath>
</defs>
</svg>
